<?xml version="1.0" encoding="utf-8"?>
<!-- Generator: Adobe Illustrator 23.0.5, SVG Export Plug-In . SVG Version: 6.00 Build 0)  -->
<svg version="1.1" id="Слой_1" xmlns="http://www.w3.org/2000/svg" xmlns:xmlnsXlink="http://www.w3.org/1999/xmlnsXlink" x="0px" y="0px"
	 viewBox="0 0 744 959" style="enable-background:new 0 0 744 959;" xml:space="preserve">
<style type="text/css">
	.st0{display:none;}
	.st1{fill:#DD9B26;}
	.st2{fill:#F4CA53;}
	.st3{fill:#C18421;}
	.st4{fill:#62A8DD;}
	.st5{fill:#659959;}
	.st6{fill:#B5331A;}
	.st7{fill:#992414;}
	.st8{fill:#DBA995;}
	.st9{fill:#F9BFAC;}
	.st10{fill:#774F44;}
	.st11{fill:#9E7263;}
	.st12{fill:#D1C699;}
	.st13{fill:#A59F84;}
	.st14{fill:#6073C6;}
	.st15{fill:#93A2D8;}
	.st16{fill:#B5C0E2;}
	.st17{fill:#4D6296;}
	.st18{fill:#7F5E36;}
	.st19{fill:#E1F9F9;stroke:#030505;stroke-width:0.6788;stroke-miterlimit:10;}
	.st20{fill:#F7D174;}
	.st21{fill:#E5A642;}
	.st22{fill:#BA8942;}
	.st23{fill:#A5793F;}
	.st24{fill:#E09E4F;}
	.st25{fill:#E8AA58;}
	.st26{fill:#F9C067;}
	.st27{fill:#F9E88A;}
	.st28{fill:#C1C1C1;}
	.st29{fill:#999595;}
	.st30{fill:#8096A0;}
	.st31{fill:#93AAB2;}
	.st32{fill:#C9E2E1;}
	.st33{fill:#E1F9F9;}
	.st34{fill:#F4F9F9;}
	.st35{fill:#EDA04C;}
	.st36{fill:#F4DA6C;}
	.st37{fill:#606060;}
	.st38{fill:#3A3A3A;}
	.st39{fill:#A5A5A5;}
	.st40{fill:#777674;}
	.st41{fill:#6E8E8B;}
	.st42{fill:#D18942;}
	.st43{fill:#A9D3D0;}
	.st44{fill:none;stroke:#FFFFFF;stroke-width:0.4022;stroke-miterlimit:10;}
	.st45{fill:#E56785;}
	.st46{fill:#7FE2EF;}
	.st47{fill:#C6AD93;}
	.st48{fill:#776851;}
	.st49{fill:#FFE888;}
	.st50{fill:#EDCC7A;}
	.st51{fill:#BBF5F9;}
	.st52{fill:#6BC0C6;}
</style>
<g>
	<g>
		<g>
			<g>
				<path class="st39" d="M297.44,233.06c0.1-0.01,0.2-0.02,0.3-0.02c19.29-1.15,27.54,0.93,44.8,9.98
					c0.33,0.17,0.66,0.35,0.99,0.52c7.98,4.22,9.55,4.75,15.68,7.47c17,7.53,31.36,9.59,47.75,20.04c5,3.19,11.57,7.12,17.04,12.07
					c37.71,34.1,49.08-24.65,98.04-33.5c21.02-3.8,29.34-3.79,48.48,0.79c22.25,5.32,36.58,22.41,45.34,43.64
					c2.88,6.97,4.15,14.9,4.99,22.29c0.07,0.58,0.04,1.24,0.06,1.81c0.16,5.08,0.15,10.97-0.33,15.91
					c-2.96,30.25-14.08,57.89-34.28,80.38c-5.43,6.05-9.92,10.28-15.39,15.67c-3.81,3.75-7.35,6.5-11.5,9.87
					c-1.81,1.47-3.39,2.92-5.42,4.52c-18.3,14.47-39.63,26.66-62.59,31.91v0.01c-9.37,1.99-18.03,4.83-27.71,5.91
					c-5.72,0.64-12.06,0.65-17.97,0.6c-0.27,0-0.33-0.02-1.05-0.02c-0.02,0,2.11-0.02-0.64-0.01c-2.77,0.02-10.01-0.86-15.56-0.48
					c-27.1,1.84-49.86,4.96-77.1-2.72c-0.48-0.13-0.93-0.23-1.4-0.41c-13.44-4.96-25.61-9.65-37.77-17.96
					c-9.59-6.55-18.9-13.3-27.92-21.84c-15.78-14.94-30.28-32.78-41.58-51.62c-1.8-2.98-6.85-12.56-7.92-14.67
					c-11.69-23.17-18.14-36.78-14.94-63.02c0.4-3.23,0.7-5.13,1.14-7.73c4.08-23.9,19.59-40.65,38.36-54.8
					c1.02-0.76,1.57-1.24,2.59-1.87c0.03-0.02,0.05-0.03,0.08-0.05c1.92-1.17,3.74-2.26,5.51-3.28L297.44,233.06z"/>
				<path class="st40" d="M514.56,260.32c2.65,8.05-2.4,14.96-9.4,20.31c-7,5.35-7.75-0.36-15.17-0.05
					c-12.92,0.54,3.75-14.13,7.28-17.66C500.81,259.38,511.91,252.27,514.56,260.32z"/>
				<path class="st40" d="M419.22,368.44c-26.27,17.72-0.15,38.33-43.17,43.91c-0.03,0-0.15,0.11-0.19,0.11
					c-7.14-0.03-15.05-0.46-21.3-4.68c-27.16-18.34-53.91-43.6-66.02-74.57c-4.3-10.99,1.3-16.73,11.31-15.07
					c12.18,2.02,32.17,9.87,41.53,13.23C371.15,342.04,464.98,337.57,419.22,368.44z"/>
				<path class="st40" d="M407.79,285.29c-10.48,15.74-34.01-5.47-38.35-18.59c-1.77-5.33-6.59-11.11-11.38-14.61
					c0.34-0.39,0.86-0.62,1.26-0.94c16.52,6.88,31.66,10.05,47.5,19.66C407.19,275.89,411.35,279.93,407.79,285.29z"/>
				<path class="st40" d="M513.86,390.8c2.36,22.54-34.7,54.39-60.29,40.07c-20.7-11.58-45.72,17.96-49.88,0.02
					c-4.16-17.94,42.5-49.33,56.14-50.4C473.47,379.42,511.5,368.27,513.86,390.8z"/>
				<path class="st40" d="M576.64,408.69c-2.75,8.92-12.41,10.17-21.46,7.54c-9.05-2.64-6.46-7.25-11.64-13.41
					c-9.03-10.73,10.18-8.79,16.73-8.12C566.8,395.37,579.4,399.76,576.64,408.69z"/>
				<path class="st40" d="M312.31,295.38c-17.15-21.9-39.31-32.79-50.39-49.6c-0.13-0.19-0.25-0.38-0.38-0.58
					c2.11-0.98,4.09-1.9,5.97-2.75c9.82-4.45,17.24-7.25,29.92-9.39c0.1-0.01,0.2-0.02,0.3-0.02c19.29-1.15,27.54,0.93,44.8,9.98
					c0.46,0.33,0.93,0.67,1.42,1.01c0.68,4.05-0.24,10.6-0.09,13.94C344.93,282.32,348.45,341.51,312.31,295.38z"/>
				<path class="st40" d="M445.69,482.67c-0.41-0.18-0.58,0.22-0.75,0.22c-0.13,0-0.02-0.01-0.02-0.01
					c-5.57-0.11-10.6-0.88-16.25-0.49c-27.6,1.93-49.93,4.83-77.25-2.6c8.42-6.39,84.91-52.04,85.6-32.33
					C437.71,467.17,419.61,473.44,445.69,482.67z"/>
			</g>
			<g>
				<path class="st39" d="M432.7,185.42c-25.14,3.28-49.73-7.1-30.06-18.03c1.72-0.96,13.83-6.95,29.67-9.11
					c14.55-1.98,32.24-0.74,47.89,10.62c1.86,1.36,3.71,2.85,5.5,4.5C519.04,204,457.84,182.14,432.7,185.42z"/>
				<path class="st40" d="M480.2,168.89c-9.86,0.99-24.99,2.71-37.67,5.05c-12.47,2.3-11.74-7.81-10.22-15.67
					C446.86,156.29,464.55,157.53,480.2,168.89z"/>
			</g>
		</g>
		<g>
			<path class="st39" d="M275.94,810.02h-13.49l-2.73-17.27h-17.03l-2.73,17.27h-13.43v-0.23l17.62-90.87h14.3L275.94,810.02z
				 M257.8,781.07l-6.63-41.04l-6.69,41.04H257.8z"/>
			<path class="st39" d="M327.16,801.7c0,5.54-2.75,8.31-8.26,8.31h-27.38c-5.46,0-8.2-2.77-8.2-8.31v-21.69h13.6v18.55h16.63
				v-17.85l-27.27-25.81c-1.98-1.9-2.96-4.32-2.96-7.27V727.4c0-5.58,2.73-8.37,8.2-8.37h27.38c5.5,0,8.26,2.75,8.26,8.26v20.35
				h-13.6v-17.15h-16.63v16.45l27.27,25.7c1.98,1.86,2.96,4.32,2.96,7.38V801.7z"/>
			<path class="st39" d="M377.51,731.07h-15v78.95h-13.55v-78.95h-15v-12.03h43.54V731.07z"/>
			<path class="st39" d="M422.15,810.02h-37.73v-90.98h37.38v12.03h-23.78v26.57h20.46v11.8h-20.46v28.55h24.13V810.02z"/>
			<path class="st39" d="M478.02,810.02h-14.19l-15-42.27v-8.2h13.37v-28.84h-17.15v79.3h-13.6v-90.98h36.1
				c5.46,0,8.2,2.79,8.2,8.37v33.08c0,3.84-1.3,6.32-3.9,7.44c-1.4,0.58-4.34,0.87-8.84,0.87L478.02,810.02z"/>
			<path class="st39" d="M532.21,801.7c0,5.54-2.75,8.31-8.26,8.31h-29.53c-5.39,0-8.08-2.77-8.08-8.31v-74.3
				c0-5.58,2.69-8.37,8.08-8.37h29.53c5.5,0,8.26,2.79,8.26,8.37V801.7z M518.6,798.33v-67.61h-18.66v67.61H518.6z"/>
			<path class="st39" d="M556.98,810.02h-13.6v-90.98h13.6V810.02z"/>
			<path class="st39" d="M613.48,792.87c0,5.35-1.59,9.54-4.77,12.59c-3.18,3.04-7.46,4.56-12.85,4.56h-27.73v-90.98h27.73
				c5.39,0,9.67,1.54,12.85,4.62c3.18,3.08,4.77,7.3,4.77,12.64V792.87z M599.82,790.6v-52.27c0-5.08-2.65-7.62-7.96-7.62h-10.12
				v67.61h9.77C597.05,798.33,599.82,795.75,599.82,790.6z"/>
		</g>
	</g>
</g>
</svg>
