<?xml version="1.0" encoding="utf-8"?>
<!-- Generator: Adobe Illustrator 23.0.5, SVG Export Plug-In . SVG Version: 6.00 Build 0)  -->
<svg version="1.1" id="Слой_1" xmlns="http://www.w3.org/2000/svg" xmlns:xmlnsXlink="http://www.w3.org/1999/xmlnsXlink" x="0px" y="0px"
	 viewBox="0 0 678 1186" style="enable-background:new 0 0 678 1186;" xml:space="preserve">
<style type="text/css">
	.st0{display:none;}
	.st1{fill:#DD9B26;}
	.st2{fill:#F4CA53;}
	.st3{fill:#C18421;}
	.st4{fill:#62A8DD;}
	.st5{fill:#659959;}
	.st6{fill:#B5331A;}
	.st7{fill:#992414;}
	.st8{fill:#DBA995;}
	.st9{fill:#F9BFAC;}
	.st10{fill:#774F44;}
	.st11{fill:#9E7263;}
	.st12{fill:#D1C699;}
	.st13{fill:#A59F84;}
	.st14{fill:#6073C6;}
	.st15{fill:#93A2D8;}
	.st16{fill:#B5C0E2;}
	.st17{fill:#4D6296;}
	.st18{fill:#7F5E36;}
	.st19{fill:#E1F9F9;stroke:#030505;stroke-width:0.6788;stroke-miterlimit:10;}
	.st20{fill:#F7D174;}
	.st21{fill:#E5A642;}
	.st22{fill:#BA8942;}
	.st23{fill:#A5793F;}
	.st24{fill:#E09E4F;}
	.st25{fill:#E8AA58;}
	.st26{fill:#F9C067;}
	.st27{fill:#F9E88A;}
	.st28{fill:#C1C1C1;}
	.st29{fill:#999595;}
	.st30{fill:#8096A0;}
	.st31{fill:#93AAB2;}
	.st32{fill:#C9E2E1;}
	.st33{fill:#E1F9F9;}
	.st34{fill:#F4F9F9;}
	.st35{fill:#EDA04C;}
	.st36{fill:#F4DA6C;}
	.st37{fill:#606060;}
	.st38{fill:#3A3A3A;}
	.st39{fill:#A5A5A5;}
	.st40{fill:#777674;}
	.st41{fill:#6E8E8B;}
	.st42{fill:#D18942;}
	.st43{fill:#A9D3D0;}
	.st44{fill:none;stroke:#FFFFFF;stroke-width:0.4022;stroke-miterlimit:10;}
	.st45{fill:#E56785;}
	.st46{fill:#7FE2EF;}
	.st47{fill:#C6AD93;}
	.st48{fill:#776851;}
	.st49{fill:#FFE888;}
	.st50{fill:#EDCC7A;}
	.st51{fill:#BBF5F9;}
	.st52{fill:#6BC0C6;}
</style>
<g>
	<g>
		<g>
			<path class="st21" d="M163.26,699.36c-2.38-0.84-4.76-1.67-7.14-2.48c1.53-0.86,3.05-1.74,4.56-2.63
				C161.55,695.94,162.41,697.65,163.26,699.36z"/>
			<g>
				<path class="st30" d="M327.45,694.27c-69.89,81.08-110.48,74.81-146.57,37.81c-36.09-37-65.96-63.58,24.77-153.88
					c90.73-90.3,195.76-290.25,299.27-419.38S454.99,546.32,327.45,694.27z"/>
				<path class="st31" d="M293.42,728.27c-4.87,2.42-7.7,7.23-11.43,10.29l-0.04,0.04c-45.16,37.16-77.9,21.85-103.73-4.07
					c-12.16-12.21-26.61-24.05-34.03-38.47c-1.15-5.92-1.66-12.04-1.54-18.26c0.28-14.21,4.83-27.08,12.07-38.95
					c4.41-5.81,9.9-11.98,16.6-18.56c0.88-0.86,1.79-1.79,2.73-2.77C238.29,550.1,425,291.22,494.53,221.08
					C567.23,147.75,361.88,694.27,293.42,728.27z"/>
				<path class="st32" d="M299.42,712.64c-4.96,4.47-10.58,20.54-17.34,24.5c-11.47,10.85-24.42,17.13-39.44,21.05
					c-24.23,1.49-49.47-5.12-68.11-21.12c-17.95-15.4-28.13-38.08-31.19-61.16c1.39-16.6,5.73-30.93,16.34-44.71
					c0.01-0.01-3.86,2.01,1.06-0.73c4.93-2.74,8.24-14.17,18.6-19.82c132.15-72,250.13-302.22,280.74-300.3
					C509.92,313.48,339.88,676.2,299.42,712.64z"/>
			</g>
			<path class="st33" d="M299.54,715.14c-3.31,6.46-7.5,12.45-12.2,17.85c-1.64,1.88-3.5,3.87-5.35,5.57l-0.04,0.04
				c-0.27,0.24-0.54,0.48-0.8,0.71c-11.38,9.94-24.6,17.52-39.36,20.61c-25.49,5.33-50.91-0.55-70.65-17.51
				c-14.37-12.35-23.51-28.51-26.96-46.37c-1.15-5.92-1.66-12.04-1.54-18.26c0.28-14.21,4.83-27.08,12.07-38.95
				c1.12-1.85,2.31-3.67,3.55-5.47c-0.06,0.06,0.03-0.04,0.08-0.11c-0.01,0.03-0.04,0.06-0.05,0.09c0.04-0.06,0.13-0.17,0.28-0.35
				c0.61-0.74,2.37-3.16,3.72-4.53c3.65-3.68,7.48-7.61,11.75-10.96c1.61-1.26,3.27-2.44,5.01-3.49
				c31.1-18.79,71.15-18.81,100.55,4.62C309.41,642.37,317.03,681,299.54,715.14z"/>
			<path class="st34" d="M198.68,721.32c-34.37-29.8-37.42-78.78-7.7-113.17c0.21-0.25,0.48-0.57,0.63-0.79
				c-11,5.7-21.18,11.5-29.42,21.24c-29.3,34.64-25.79,83.83,9.12,113.91c34.66,29.86,84.57,24.43,115.28-8.7
				C257.2,745.83,223.39,742.75,198.68,721.32z"/>
		</g>
		<g>
			<path class="st31" d="M245.3,1024.96c0,6.04-3.02,9.06-9.06,9.06h-30.91c-5.87,0-8.8-3.02-8.8-9.06v-80.95
				c0-6.08,2.93-9.12,8.8-9.12h30.91c6.04,0,9.06,3.04,9.06,9.12v23.18h-14.76v-19.57h-19.19v73.66h19.19v-20.84h14.76V1024.96z"/>
			<path class="st31" d="M306.93,1024.96c0,6.04-3,9.06-8.99,9.06h-32.18c-5.87,0-8.8-3.02-8.8-9.06v-80.95
				c0-6.08,2.93-9.12,8.8-9.12h32.18c6,0,8.99,3.04,8.99,9.12V1024.96z M292.11,1021.29v-73.66h-20.33v73.66H292.11z"/>
			<path class="st31" d="M378.76,1034.02H364.5v-48.9c0-2.58,0.29-6.17,0.89-10.77l-12.79,50.61h-7.54l-12.86-50.61
				c0.59,4.69,0.89,8.28,0.89,10.77v48.9h-14.25v-99.13h14l15.58,54.79c0.17,0.59,0.29,2.09,0.38,4.5c0-1.06,0.13-2.55,0.38-4.5
				l15.58-54.79h14V1034.02z"/>
			<path class="st31" d="M431.71,1034.02H390.6v-99.13h40.73V948h-25.91v28.95h22.3v12.86h-22.3v31.1h26.29V1034.02z"/>
			<path class="st31" d="M484.91,948h-16.34v86.02h-14.76V948h-16.34v-13.11h47.44V948z"/>
		</g>
	</g>
</g>
</svg>
