<?xml version="1.0" encoding="utf-8"?>
<!-- Generator: Adobe Illustrator 23.0.5, SVG Export Plug-In . SVG Version: 6.00 Build 0)  -->
<svg version="1.1" id="Слой_1" xmlns="http://www.w3.org/2000/svg" xmlns:xmlnsXlink="http://www.w3.org/1999/xmlnsXlink" x="0px" y="0px"
	 viewBox="170 110 600 500" style="enable-background:new 170 110 600 500;" xml:space="preserve">
<style type="text/css">
	.st0{display:none;}
	.st1{fill:#DD9B26;}
	.st2{fill:#F4CA53;}
	.st3{fill:#C18421;}
	.st4{fill:#62A8DD;}
	.st5{fill:#659959;}
	.st6{fill:#B5331A;}
	.st7{fill:#992414;}
	.st8{fill:#DBA995;}
	.st9{fill:#F9BFAC;}
	.st10{fill:#774F44;}
	.st11{fill:#9E7263;}
	.st12{fill:#D1C699;}
	.st13{fill:#A59F84;}
	.st14{fill:#6073C6;}
	.st15{fill:#93A2D8;}
	.st16{fill:#B5C0E2;}
	.st17{fill:#4D6296;}
	.st18{fill:#7F5E36;}
	.st19{fill:#E1F9F9;stroke:#030505;stroke-width:0.6788;stroke-miterlimit:10;}
	.st20{fill:#F7D174;}
	.st21{fill:#E5A642;}
	.st22{fill:#BA8942;}
	.st23{fill:#A5793F;}
	.st24{fill:#E09E4F;}
	.st25{fill:#E8AA58;}
	.st26{fill:#F9C067;}
	.st27{fill:#F9E88A;}
	.st28{fill:#C1C1C1;}
	.st29{fill:#999595;}
	.st30{fill:#8096A0;}
	.st31{fill:#93AAB2;}
	.st32{fill:#C9E2E1;}
	.st33{fill:#E1F9F9;}
	.st34{fill:#F4F9F9;}
	.st35{fill:#EDA04C;}
	.st36{fill:#F4DA6C;}
	.st37{fill:#606060;}
	.st38{fill:#3A3A3A;}
	.st39{fill:#A5A5A5;}
	.st40{fill:#777674;}
	.st41{fill:#6E8E8B;}
	.st42{fill:#D18942;}
	.st43{fill:#A9D3D0;}
	.st44{fill:none;stroke:#FFFFFF;stroke-width:0.4022;stroke-miterlimit:10;}
	.st45{fill:#E56785;}
	.st46{fill:#7FE2EF;}
	.st47{fill:#C6AD93;}
	.st48{fill:#776851;}
	.st49{fill:#FFE888;}
	.st50{fill:#EDCC7A;}
	.st51{fill:#BBF5F9;}
	.st52{fill:#6BC0C6;}
</style>
<g>
	<g>
		<g>
			<path class="st4" d="M613,341.57c0,3.32-0.07,6.64-0.23,9.92c-0.43,9.49-1.49,18.81-3.13,27.94c0,0,0,0.01,0,0.01
				c-0.87,4.85-1.91,9.64-3.1,14.36c0,0,0,0.01,0,0.02c-17.64,69.82-69.8,125.9-137.27,149c-21.62,7.41-44.81,11.42-68.95,11.42
				c-24,0-47.07-3.98-68.59-11.3c-83.8-28.54-144.09-107.91-144.09-201.38c0-35.11,8.51-68.23,23.57-97.41v0
				c29.17-56.5,82.91-98.25,147.09-111.11c13.31-2.67,27.07-4.1,41.16-4.15c0.14,0,0.29,0,0.43,0c0.14,0,0.29,0,0.43,0
				c28.24,0,55.19,5.5,79.84,15.5C558.06,175.95,613,252.34,613,341.57z"/>
			<g>
				<g>
					<g>
						<g>
							<path class="st5" d="M377.38,132.8c0,0-10.39-4.7-4.68,6.87c1.72,3.48,0.33,11.04,0.95,14.66c0.5,2.93,2.75,6.36,7.69,8.88
								c4.94,2.53,8.83-1.83,11.61-6.52c2.78-4.69,7.96-10.64,14.76-10.15c6.8,0.49,11.79-8.44,3.97-12.41
								c-7.82-3.97-10.82-6.33-14.23-4.75c-2.02,0.93-2.91,4.29-7.66,4.62C385.04,134.32,377.38,132.8,377.38,132.8z"/>
							<path class="st5" d="M404.82,390.7c-5.02,8.53-7.79,10.51-7.79,10.51s-1.82,1.92-2.51,2.47
								c-6.19,4.94-11.78,2.44-12.57,20.91c0,0-3.9,9.69-12.54,9.04c-4.53-0.34-4.11,6.58-6.26,7.79
								c-5.87,3.3-13.93-13.12-17.9,11.69c0,0-0.63,4.92-4,12.38c-1.58,3.51-6.76,6.53-7.37,21.7c-0.22,5.42-0.96,8.27-1.82,9.69
								c-1.26,2.09-1.13,4.78-0.15,7.03c1.31,3,2.38,6.32,1.84,8.25c-1.17,4.17-23.64,1.21-28.1-12.39
								c-4.46-13.61-12.83-38.39-12.83-38.39l-3.71-14.15c-1.22-4.64-1.7-9.44-1.69-14.25c0.01-8.35-1.87-22.94-13.94-30.82
								c-28.63-18.7-28.08-51.41-18.98-65.79c1.4-2.22,6.07-4.51-5.36-9.05c-7.63-3.02-9.12-9.38-9.28-13.27
								c-0.09-2.31-0.72-4.57-2.04-6.45l-5.49-7.79c-2.86-4.06-6.65-7.37-11.15-9.3c-5.71-2.45-13.47-7.69-13.38-18.04
								c0.13-16.37,2.79-20.4,3.41-27.23c0.03-0.31,0.03-0.67,0.02-1.06c0,0,0,0,0,0c29.17-56.5,82.91-98.25,147.09-111.11
								c0.72,1.61,2.03,5.08,2.03,8.88c0,4.21-1.62,8.83-7.46,11.79c-13.1,6.63-7.82-1.58-8.21-3.87
								c-0.52-3.12-5.54-5.69-12.28,0.84c-6.74,6.53-8.5-0.6-14.26,0.98c0,0,0,0-0.01,0c-0.46,0.23-16.52,8.42-13.56,17.76
								c3,9.48,4.14,14.72,14.99,10.29c10.85-4.43,3.21-11.82,11.15-12.08c7.94-0.27,4.69-4.64,5.54-6.65
								c1.12-2.67,5.81-2.44,11.22,1.28c5.41,3.72,3.72,14.47,3.72,14.47s6.07,1.63,5.89,4.92c-0.19,3.28,0.52,8.15-4.94,9.75
								c-5.47,1.6-10.58-0.87-13.47,0.92c-2.28,1.42-3,7.3-3.26,10.45c-0.19,2.22-7.2,2.33-15.09,3.01
								c-10.4,0.9-20.46,5.27-27.52,13.16c-0.51,0.57-0.84,1.17-1.24,1.55c-2.85,2.67-14.94,6.71-14.9,15.75
								c0.01,1.36,0.82,5.39,0.82,5.39s2.41,13.62-8.61,15.59c-7.16,1.29-10.04-6.7-11.18-12.45c-0.61-3.09-3.37-5.21-6.41-4.81
								l-9.27,1.2c-3.6,0.47-6.94,2.22-9.31,5.05c-6.16,7.37-5.21,11.64,4.45,31.19c2.02,4.09-1.8,8.49,0.49,18.32
								c0.46,1.98,5.51,2.3,7.27,3.24c3.01,1.61,4.43,13.2,4.43,13.2s8.79,8.94,13.37,8.94c0.26,0,0.5-0.03,0.73-0.09
								c2.02-0.52,3.86-2.67,5.23-4.78c2.08-3.21,5.34-5.33,9.06-5.78c8.36-1,22.83-1.64,31.85,4.13c13.28,8.5-3.06,7.98,15.71,9.15
								c11.74,0.73,19.93,11.61,24.43,19.67c2.73,4.89,7.21,8.54,12.47,10.16c4.18,1.29,7.29,6.16,12.41,8.12
								c4.85,1.86,15.02-3.07,20.27,4.34C400.12,373.43,409.83,382.17,404.82,390.7z"/>
							<path class="st5" d="M469.26,542.83c-21.62,7.41-44.81,11.42-68.95,11.42c-24,0-47.07-3.98-68.59-11.3
								c4.36-3.4,16-11.71,21.28-7.88c6.58,4.76,0.7,10.69,30.01,11.75c29.31,1.06,21.72,0.36,25.94-4.85
								c2.79-3.44,3.85-4.99,19.56,2.59c0,0,11.89-0.75,13.29-6.68C443.12,532.4,465.94,541.47,469.26,542.83z"/>
							<path class="st5" d="M613,341.57c0,3.32-0.07,6.64-0.23,9.92c-6.59,0.74-2.63,7.24-3.11,27.43c0,0.17-0.01,0.33-0.02,0.5
								c0,0,0,0.01,0,0.01c-0.19,5.36-1.41,10.18-3.1,14.36c0,0,0,0.01,0,0.02c-4.6,11.41-12.64,18.09-12.64,18.09
								s-13.83,16.9-12.76,28.79c0.99,10.95-11.52,28.28-32.81,24.15c-2.85-0.55-4.69-3.46-3.84-6.32c1.42-4.75,2.29-12-3.26-16.63
								c-5.41-4.52-1.37-10.26,2.56-14.03c2.99-2.86,4.7-6.78,5.1-10.95c0.35-3.63,1.21-7.52,3.29-8.6
								c5.43-2.81-1.08-18.81-1.92-25.02c-0.41-3.06-0.49-12.24,4.64-11.37c5.13,0.88-6.33-42.52-6.33-42.52s-5.13-14.68-28.52-7.25
								c-23.39,7.43-43.71-2.22-43.71-2.22s-7.25-5.95-1.8-27.8s-4.97-35.25-1.23-37.35s11.43-3.24,14.72-12.36
								c3.29-9.13,1.81-13.62,16.18-12.77c14.38,0.85,23.64-8.25,35.33-2.82c11.69,5.43,14.74,11.05,28.68,5.19
								c13.94-5.86-10.77-14.3-10.77-14.3s-4.12-3.71-7.67-3.15c-3.54,0.55-10.14-4.66-12.9-2.8c-3.05,2.07-0.47,6.65-13.34-6.14
								c-1.58-1.57-5.41-0.55-8.15,3.32c-2.73,3.86-8.8-2.27-8.8-2.27s-4.78-3.82-8.01,9.86c-3.24,13.68-38.88-2.28-22.36-13.5
								c3.19-2.17,10.49-3.79,15.27,0.79c4.77,4.58-2.71-9.63,8.36-13.76c11.07-4.13-9.73-26-18.18-27.29
								c-5.92-0.91-22.48-5.63-21.67-16.12c0.46-5.98,11.1-4.59,20.16-2.28C558.06,175.95,613,252.34,613,341.57z"/>
							<path class="st5" d="M464.44,164.69c0,0,21.65,15.59,16.06,21.5c-5.59,5.91-6.87,4.46-11.25-3.22
								c-4.38-7.68-13.49-14.72-10.75-18.59C461.23,160.5,464.44,164.69,464.44,164.69z"/>
							<path class="st5" d="M458.58,175.11c2.4-0.24,6.34,2.94,5.83,7.88C463.9,187.94,447.43,176.22,458.58,175.11z"/>
							<path class="st5" d="M257.24,268.25c0,0,3.88,10.78,18.27,5.7C289.9,268.88,252.85,263.07,257.24,268.25z"/>
							<path class="st5" d="M262.97,282.99c0,0,2.38,5.97,12.44,1.6c2.05-0.89,2.67-1.58,2.06-2.15
								C273.8,278.98,263.51,276.43,262.97,282.99z"/>
							<path class="st5" d="M301.23,284.01c6.02,11.84-30.03,2.91-22.8-2.08C285.65,276.94,297.58,276.84,301.23,284.01z"/>
						</g>
					</g>
				</g>
			</g>
		</g>
	</g>
</g>
</svg>
