<?xml version="1.0" encoding="utf-8"?>
<!-- Generator: Adobe Illustrator 23.0.5, SVG Export Plug-In . SVG Version: 6.00 Build 0)  -->
<svg version="1.1" id="Слой_1" xmlns="http://www.w3.org/2000/svg" xmlns:xmlnsXlink="http://www.w3.org/1999/xmlnsXlink" x="0px" y="0px"
	 viewBox="0 0 1235 1244" style="enable-background:new 0 0 1235 1244;" xml:space="preserve">
<style type="text/css">
	.st0{display:none;}
	.st1{fill:#DD9B26;}
	.st2{fill:#F4CA53;}
	.st3{fill:#C18421;}
	.st4{fill:#62A8DD;}
	.st5{fill:#659959;}
	.st6{fill:#B5331A;}
	.st7{fill:#992414;}
	.st8{fill:#DBA995;}
	.st9{fill:#F9BFAC;}
	.st10{fill:#774F44;}
	.st11{fill:#9E7263;}
	.st12{fill:#D1C699;}
	.st13{fill:#A59F84;}
	.st14{fill:#6073C6;}
	.st15{fill:#93A2D8;}
	.st16{fill:#B5C0E2;}
	.st17{fill:#4D6296;}
	.st18{fill:#7F5E36;}
	.st19{fill:#E1F9F9;stroke:#030505;stroke-width:0.6788;stroke-miterlimit:10;}
	.st20{fill:#F7D174;}
	.st21{fill:#E5A642;}
	.st22{fill:#BA8942;}
	.st23{fill:#A5793F;}
	.st24{fill:#E09E4F;}
	.st25{fill:#E8AA58;}
	.st26{fill:#F9C067;}
	.st27{fill:#F9E88A;}
	.st28{fill:#C1C1C1;}
	.st29{fill:#999595;}
	.st30{fill:#8096A0;}
	.st31{fill:#93AAB2;}
	.st32{fill:#C9E2E1;}
	.st33{fill:#E1F9F9;}
	.st34{fill:#F4F9F9;}
	.st35{fill:#EDA04C;}
	.st36{fill:#F4DA6C;}
	.st37{fill:#606060;}
	.st38{fill:#3A3A3A;}
	.st39{fill:#A5A5A5;}
	.st40{fill:#777674;}
	.st41{fill:#6E8E8B;}
	.st42{fill:#D18942;}
	.st43{fill:#A9D3D0;}
	.st44{fill:none;stroke:#FFFFFF;stroke-width:0.4022;stroke-miterlimit:10;}
	.st45{fill:#E56785;}
	.st46{fill:#7FE2EF;}
	.st47{fill:#C6AD93;}
	.st48{fill:#776851;}
	.st49{fill:#FFE888;}
	.st50{fill:#EDCC7A;}
	.st51{fill:#BBF5F9;}
	.st52{fill:#6BC0C6;}
</style>
<g>
	<g>
		<g>
			<path class="st8" d="M1013.67,481.17c1.66,5.06,3.21,10.12,4.65,15.2c3.86,13.58,6.93,27.21,9.25,40.85
				c0.65,3.81,1.25,7.62,1.77,11.43c2.23,16.02,3.44,32.04,3.63,47.95c0.04,2.73,0.04,5.45,0.02,8.16
				c-0.1,12.2-0.8,24.34-2.05,36.36c-0.25,2.3-0.5,4.59-0.78,6.87c-0.43,3.54-0.91,7.06-1.44,10.58c-0.31,2.03-0.63,4.06-0.97,6.09
				c-0.23,1.38-0.46,2.75-0.71,4.11c-0.04,0.25-0.09,0.48-0.13,0.72c-0.26,1.5-0.55,2.99-0.83,4.48c-0.06,0.3-0.11,0.58-0.17,0.88
				c-0.3,1.5-0.6,3-0.91,4.51c-0.06,0.26-0.11,0.54-0.17,0.81c-0.28,1.33-0.56,2.66-0.86,3.98c-0.43,1.97-0.88,3.94-1.34,5.91
				c-0.55,2.27-1.1,4.54-1.69,6.8c-5.48,21.32-12.77,42.09-21.73,62.09l0,0.01c-6.88,15.31-14.73,30.16-23.52,44.46
				c-46.04,74.8-117.76,134.33-207.73,163.88c-87.67,28.8-178.26,24.4-258.15-6.3l-0.01-0.01c-17.52-6.73-34.53-14.74-50.85-23.93
				l0-0.01c-19.94-11.19-38.87-24.15-56.57-38.75c-7.74-6.38-15.25-13.08-22.5-20.08c-0.47-0.46-0.95-0.91-1.41-1.39
				c-0.92-0.9-1.84-1.8-2.75-2.71c-3.16-3.13-6.25-6.31-9.29-9.57c-3.09-3.3-6.12-6.67-9.1-10.07c-1.08-1.24-2.15-2.48-3.21-3.74
				c-5.3-6.24-10.4-12.65-15.31-19.25c-8.55-11.46-16.49-23.48-23.78-36.01l0-0.01c-2.78-4.78-5.47-9.64-8.06-14.58
				c-2.83-5.37-5.54-10.86-8.13-16.41l0-0.01c-0.27-0.58-0.53-1.15-0.8-1.73c-5.05-10.95-9.62-22.22-13.66-33.83
				c-0.87-2.43-1.7-4.9-2.51-7.37c-5.43-16.54-9.69-33.18-12.81-49.84l0-0.01c-0.65-3.52-1.26-7.03-1.81-10.54
				c-0.39-2.48-0.76-4.96-1.11-7.44c-0.07-0.44-0.12-0.88-0.18-1.32c-0.4-2.92-0.76-5.83-1.08-8.75
				c-0.62-5.58-1.11-11.15-1.48-16.73l0-0.01c-0.85-12.47-1.07-24.88-0.69-37.23c0.51-17.23,2.2-34.31,5-51.12
				c0.16-0.94,0.32-1.89,0.48-2.82c2.08-12.04,4.74-23.93,7.95-35.66c1.44-5.25,2.98-10.47,4.64-15.65
				c8.52-26.67,19.92-52.34,33.94-76.51c8.44-14.55,17.84-28.57,28.15-41.93c7.75-10.05,16-19.75,24.74-29.03
				c42.61-45.24,96.79-80.78,159.98-101.54c76.98-25.29,156.22-24.98,228.5-3.74c3.79,1.1,7.56,2.27,11.31,3.51
				c11.18,3.66,22.18,7.82,32.96,12.48c9.71,4.2,19.25,8.78,28.58,13.76c12.26,6.52,24.17,13.72,35.68,21.55
				c7.7,5.22,15.21,10.75,22.52,16.53c5.05,4.01,10.02,8.14,14.87,12.41c6.66,5.82,13.12,11.89,19.37,18.19
				c0.12,0.12,0.23,0.24,0.35,0.35c0.1,0.1,0.2,0.21,0.3,0.31c0.2,0.2,0.4,0.39,0.58,0.59c8.14,8.27,15.92,16.93,23.32,25.98
				c16.38,19.99,30.87,41.82,43.14,65.33c8.69,16.65,16.28,34.15,22.6,52.41C1012.32,477.13,1013.01,479.15,1013.67,481.17z"/>
			<path class="st9" d="M945.88,357.38c-15.04,19.55-39.17,47.31-76.58,86.5C709.5,611.34,536.66,573.32,436.01,586.21
				c-44.24,5.66-85.2,26.04-120.82,46.56c-17.35,10-33.43,20.03-48,28.41c-0.39-2.48-0.76-4.96-1.11-7.44
				c-0.07-0.44-0.12-0.88-0.18-1.32c-0.4-2.92-0.76-5.83-1.08-8.75c-0.62-5.58-1.11-11.15-1.48-16.73l0-0.01
				c24.33-14.64,53.38-31.97,83.35-51.72c94.49-62.31,382.34-64.09,445.1-140.16c20.86-25.31,45.02-46.78,67.94-64.16
				c23.55-17.87,45.83-31.42,61.95-40.39c2.19-1.22,4.26-2.35,6.21-3.39c-1.77,1.46-3.54,2.89-5.32,4.29
				C930.7,339.67,938.48,348.33,945.88,357.38z"/>
			<path class="st10" d="M927.88,327.12c-1.97,1.25-3.93,2.48-5.9,3.7c-0.9,0.56-1.8,1.11-2.7,1.67
				c-9.88,6.09-19.72,11.85-29.5,17.28c-23.74,13.19-47.21,24.54-70.3,34.36c-3.78,1.61-7.56,3.17-11.32,4.7
				c-24.91,10.12-49.35,18.49-73.21,25.47c-5.59,1.65-11.14,3.21-16.66,4.7c-27.72,7.53-54.57,13.3-80.35,17.94
				c-74.71,13.48-105.92,18.28-157.42,28.36c-21.82,4.27-45.36,10.47-69.32,17.79c-46.51,14.21-94.64,32.64-134.9,49.29
				c-2.77,1.14-5.49,2.28-8.18,3.4c2.08-12.04,4.74-23.93,7.95-35.66c15.67-7.94,32.15-16.39,49.03-25.28
				c5.03-2.66,10.1-5.34,15.19-8.08c18.69-10.02,42.69-19.41,70.23-28.41c46.92-15.31,104.14-29.45,162.89-43.51
				c5.11-1.22,10.24-2.44,15.36-3.67c65.31-15.56,131.6-31.13,186.97-48.19c18.24-5.61,35.31-11.4,50.76-17.4
				c17.24-6.7,32.47-13.65,45.11-20.96c6.87,3.41,13.6,6.96,20.13,10.68c1.89,1.06,3.75,2.15,5.6,3.23
				c7.15,4.19,14.07,8.57,20.76,13.13c1.09-0.51,2.17-1.02,3.22-1.53C923.6,329.09,925.79,328.08,927.88,327.12z"/>
			<path class="st11" d="M800.3,247.71c-5.49,3.87-11.39,7.93-17.72,12.18c-86.25,58.09-162.85,80.16-218.84,89.48
				c-35.45,5.91-62.64,6.7-78.78,8.29c-30.24,2.99-114.17,15.27-142.15,8.36c7.75-10.05,16-19.75,24.74-29.03
				c68.17-16.34,221.76-1.73,320.21-62.66c26.14-16.17,48.82-30.35,68.28-42.62c3.79,1.1,7.56,2.27,11.31,3.51
				C778.53,238.89,789.52,243.05,800.3,247.71z"/>
			<path class="st10" d="M1018.32,496.36c3.86,13.58,6.93,27.21,9.25,40.85c-15.58,11.99-34.87,25.19-57.11,38.96
				c-0.01,0-0.01,0-0.02,0.01c-109.7,67.87-290.99,149.3-451.18,166.06c-69.54,7.28-114.16,7.73-144.9,7.67l-0.01,0
				c-42.02-0.09-58.09-1.15-76.35,12.87c-5.05-10.95-9.62-22.22-13.66-33.83c37.84-31.28,76.27-54.69,260.99-53.21
				C739.44,677.29,928.7,543.22,1018.32,496.36z"/>
			<path class="st11" d="M1011.62,475.12c-13.98,8.9-29.23,17.95-45.69,26.93c-21.51,11.76-45.05,23.41-70.41,34.53
				c-1.31,0.58-2.63,1.15-3.96,1.72c-166.91,72.28-515.74,136.83-622.55,133.44l0-0.01c-0.65-3.52-1.26-7.03-1.81-10.54
				c-0.39-2.48-0.76-4.96-1.11-7.44c-0.07-0.44-0.12-0.88-0.18-1.32c-0.4-2.92-0.76-5.83-1.08-8.75c12.15-3.28,29.68-7,50.36-10.91
				c92.46-17.46,248.06-38.63,268.37-40.42c55.56-4.88,184.45-29.98,372.31-149.23c11.75-7.46,22.79-14.25,33.16-20.42
				C997.71,439.36,1005.29,456.86,1011.62,475.12z"/>
			<path class="st10" d="M1030.15,647.98c-0.43,3.54-0.91,7.06-1.44,10.58c-0.31,2.03-0.63,4.06-0.97,6.09
				c-0.23,1.38-0.46,2.75-0.71,4.11c-0.04,0.25-0.09,0.48-0.13,0.72c-0.26,1.5-0.55,2.99-0.83,4.48c-0.06,0.3-0.11,0.58-0.17,0.88
				c-0.3,1.5-0.6,3-0.91,4.51c-0.06,0.26-0.11,0.54-0.17,0.81c-0.28,1.33-0.56,2.66-0.86,3.98c-0.43,1.97-0.88,3.94-1.34,5.91
				c-5.03,4.15-10.77,8.53-17.12,13.1c-88.29,63.55-296.5,163.9-426.56,183.03c-48.76,7.16-115.68,11.25-176.58,12.13
				c-7.74-6.38-15.25-13.08-22.5-20.08c-0.47-0.46-0.95-0.91-1.41-1.39c-0.92-0.9-1.84-1.8-2.75-2.71
				c-3.16-3.13-6.25-6.31-9.29-9.57c10.14,0.28,21.66,0.37,34.38,0.1c3.65-0.07,7.41-0.17,11.25-0.31
				c31.01-1.08,68.14-4.27,109.18-11.48c0.01,0,0.03,0,0.04,0l0.03-0.01c33.05-5.8,68.6-14.21,105.51-26.23l0.02-0.01
				c37.93-12.35,77.28-28.52,116.75-49.59c5.18-2.76,10.36-5.61,15.54-8.55c8.36-4.74,16.57-9.33,24.61-13.78
				c27.1-14.98,52.38-28.33,75.74-40.08l0.03-0.01c72.93-36.69,127.04-57.81,158.67-64.62
				C1022.61,649.06,1026.61,648.38,1030.15,647.98z"/>
			<path class="st11" d="M999.2,758.96c-6.88,15.31-14.73,30.16-23.52,44.46c-64.77,38.79-138.05,78.18-196.56,102.73
				c-80.24,33.66-192.17,50.59-269.33,54.86l-0.01-0.01c-17.52-6.73-34.53-14.74-50.85-23.93c10.98-2.85,24.6-5.91,41.11-9.16
				C639.04,900.53,930.55,806.89,999.2,758.96z"/>
			<path class="st9" d="M1032.99,604.75c-0.1,12.2-0.8,24.34-2.05,36.36c-3.78,2.8-8.03,5.77-12.78,8.91
				c-11.31,7.48-25.42,15.94-42.75,25.4c-0.01,0-0.01,0-0.02,0.01c-17.93,9.8-39.28,20.67-64.46,32.66
				c-11.63,5.54-23.97,10.86-36.84,15.96c-28.01,11.13-58.61,21.29-90.37,30.69c-55.21,16.35-113.85,30.37-168.22,43.06
				c-0.01,0-0.02,0.01-0.02,0.01c-80.51,18.77-151.64,34.62-188.36,50.73c-8.28,3.65-14.82,7.3-19.31,11
				c-2.11,1.73-4.45,3.44-7.02,5.15c-3.96,2.64-8.42,5.23-13.31,7.76c-2.88,1.5-5.9,2.97-9.03,4.42c-0.92-0.9-1.84-1.8-2.75-2.71
				c-3.16-3.13-6.25-6.31-9.29-9.57c-3.09-3.3-6.12-6.67-9.1-10.07c-1.08-1.24-2.15-2.48-3.21-3.74
				c22.58-8.69,47.6-17.95,73.73-27.05c4.85-1.69,9.73-3.36,14.66-5.04l0.01,0c61.18-20.77,126.91-39.8,180.79-47.71
				c8.12-1.2,16.5-2.79,25.11-4.73c0.03-0.01,0.05-0.01,0.08-0.02c75.97-17.08,169.52-61.18,246.14-99
				C960.68,634.62,1014.17,606.67,1032.99,604.75z"/>
		</g>
		<g>
			<path class="st9" d="M531.7,1124.84c0,5.28-2.66,7.92-7.98,7.92h-24.6c-5.21,0-7.81-2.64-7.81-7.92v-21.33h12.91v18.12h14.51
				v-75.56h12.96V1124.84z"/>
			<path class="st9" d="M585.38,1124.84c0,5.28-2.66,7.92-7.98,7.92h-27.53c-5.24,0-7.87-2.64-7.87-7.92v-78.78h12.96v75.56h17.45
				v-75.56h12.96V1124.84z"/>
			<path class="st9" d="M637.68,1093.26c0,5.39-2.64,8.09-7.92,8.09h-21v31.41H595.8v-86.7h33.96c5.28,0,7.92,2.66,7.92,7.98
				V1093.26z M624.61,1090.22v-33.02h-15.84v33.02H624.61z"/>
			<path class="st9" d="M660.06,1132.76H647.1v-86.7h12.96V1132.76z"/>
			<path class="st9" d="M708.37,1057.53h-14.29v75.23h-12.91v-75.23h-14.29v-11.47h41.49V1057.53z"/>
			<path class="st9" d="M750.92,1132.76h-35.95v-86.7h35.62v11.47h-22.66v25.32h19.5v11.25h-19.5v27.2h22.99V1132.76z"/>
			<path class="st9" d="M804.16,1132.76h-13.52l-14.29-40.28v-7.81h12.74v-27.48h-16.34v75.56h-12.96v-86.7h34.4
				c5.21,0,7.81,2.66,7.81,7.98v31.52c0,3.66-1.24,6.02-3.71,7.09c-1.33,0.55-4.14,0.83-8.42,0.83L804.16,1132.76z"/>
		</g>
	</g>
</g>
</svg>
