<?xml version="1.0" encoding="utf-8"?>
<!-- Generator: Adobe Illustrator 23.0.5, SVG Export Plug-In . SVG Version: 6.00 Build 0)  -->
<svg version="1.1" id="Слой_1" xmlns="http://www.w3.org/2000/svg" xmlns:xlink="http://www.w3.org/1999/xlink" x="0px" y="0px"
	 viewBox="0 0 580 1119" style="enable-background:new 0 0 580 1119;" xml:space="preserve">
<style type="text/css">
	.st0{display:none;}
	.st1{fill:#DD9B26;}
	.st2{fill:#F4CA53;}
	.st3{fill:#C18421;}
	.st4{fill:#62A8DD;}
	.st5{fill:#659959;}
	.st6{fill:#B5331A;}
	.st7{fill:#992414;}
	.st8{fill:#DBA995;}
	.st9{fill:#F9BFAC;}
	.st10{fill:#774F44;}
	.st11{fill:#9E7263;}
	.st12{fill:#D1C699;}
	.st13{fill:#A59F84;}
	.st14{fill:#6073C6;}
	.st15{fill:#93A2D8;}
	.st16{fill:#B5C0E2;}
	.st17{fill:#4D6296;}
	.st18{fill:#7F5E36;}
	.st19{fill:#E1F9F9;stroke:#030505;stroke-width:0.6788;stroke-miterlimit:10;}
	.st20{fill:#F7D174;}
	.st21{fill:#E5A642;}
	.st22{fill:#BA8942;}
	.st23{fill:#A5793F;}
	.st24{fill:#E09E4F;}
	.st25{fill:#E8AA58;}
	.st26{fill:#F9C067;}
	.st27{fill:#F9E88A;}
	.st28{fill:#C1C1C1;}
	.st29{fill:#999595;}
	.st30{fill:#8096A0;}
	.st31{fill:#93AAB2;}
	.st32{fill:#C9E2E1;}
	.st33{fill:#E1F9F9;}
	.st34{fill:#F4F9F9;}
	.st35{fill:#EDA04C;}
	.st36{fill:#F4DA6C;}
	.st37{fill:#606060;}
	.st38{fill:#3A3A3A;}
	.st39{fill:#A5A5A5;}
	.st40{fill:#777674;}
	.st41{fill:#6E8E8B;}
	.st42{fill:#D18942;}
	.st43{fill:#A9D3D0;}
	.st44{fill:none;stroke:#FFFFFF;stroke-width:0.4022;stroke-miterlimit:10;}
	.st45{fill:#E56785;}
	.st46{fill:#7FE2EF;}
	.st47{fill:#C6AD93;}
	.st48{fill:#776851;}
	.st49{fill:#FFE888;}
	.st50{fill:#EDCC7A;}
	.st51{fill:#BBF5F9;}
	.st52{fill:#6BC0C6;}
</style>
<g>
	<g>
		<g>
			<path class="st6" d="M491,429.12c0,0.62-0.01,1.24-0.01,1.86c-0.05,5.54-0.36,11.02-0.91,16.43
				c-3.32,33.12-15.58,63.6-34.33,89.01c-5.05,6.83-10.56,13.3-16.49,19.35c-4.13,4.21-8.48,8.23-13,12.02
				c-1.97,1.66-3.98,3.27-6.02,4.84c-18.48,14.19-39.76,24.9-62.88,31.12c-0.01,0.01-0.01,0-0.01,0
				c-9.46,2.55-19.22,4.36-29.22,5.34c-5.92,0.59-11.92,0.89-17.99,0.89c-0.28,0-0.54,0-0.82-0.01h-0.01
				c-5.49-0.02-10.93-0.29-16.29-0.79c-26.17-2.46-50.71-10.49-72.43-22.9c-0.38-0.21-0.76-0.43-1.13-0.64
				c-10.88-6.31-21.04-13.72-30.32-22.09c-7.32-6.59-14.1-13.77-20.26-21.47c-10.77-13.45-19.66-28.48-26.27-44.67
				c-1.06-2.57-2.05-5.18-2.98-7.81c0,0,0,0,0-0.01c-0.57-1.58-1.11-3.17-1.63-4.77c-5.67-17.55-8.74-36.27-8.74-55.71
				c0-2.4,0.05-4.78,0.14-7.16c0.85-21.8,5.56-42.62,13.46-61.77c0.44-1.06,0.89-2.13,1.35-3.18c5.18-11.92,11.62-23.17,19.14-33.58
				c12.27-17.02,27.43-31.81,44.75-43.66c29.04-19.88,64.17-31.51,102.02-31.51c47.74,0,91.16,18.5,123.49,48.73
				c13.88,12.97,25.71,28.11,34.95,44.87c10.76,19.48,18.02,41.14,20.95,64.16C490.5,413.58,491,421.3,491,429.12z"/>
			<path class="st7" d="M426.25,567.79c-1.97,1.66-3.98,3.27-6.02,4.84c-18.48,14.19-39.76,24.9-62.88,31.12
				c-0.01,0.01-0.01,0-0.01,0c-14.24-8.85-7.78-28.38-18.13-42.4c-21.6-29.25,13.06-33.05,41.74-28.28
				C404.38,536.98,422.34,551.41,426.25,567.79z"/>
			<path class="st7" d="M285.65,330.37c-1.37,8.23-11.77,13.35-23.22,11.45c-11.46-1.91-6.77-11.78-11.72-18.49
				c-8.63-11.68,5.22-13.2,16.68-11.3C278.83,313.93,287.01,322.14,285.65,330.37z"/>
			<path class="st7" d="M445.67,530.07c-1.37,8.23-11.76,13.35-23.22,11.45c-11.46-1.91-6.77-11.78-11.72-18.49
				c-8.63-11.68,5.22-13.2,16.68-11.3C438.86,513.63,447.04,521.85,445.67,530.07z"/>
			<path class="st7" d="M341.17,502.74c-18.38-9.1-23.01-37.22-10.34-62.81c12.67-25.6,32.56-7.51,51.88-14.37
				c33.65-11.95,27.34,21.71,14.67,47.31C384.71,498.45,359.55,511.83,341.17,502.74z"/>
			<path class="st7" d="M204.93,356.97c-22.33-5.22-42.59,12.82-60.71,0.05c5.18-11.92,11.62-23.17,19.14-33.58
				c12.27-17.02,27.43-31.81,44.75-43.66c3.32,3.69,6.42,7.75,9.25,12.15C238.02,324.04,251.43,367.82,204.93,356.97z"/>
			<path class="st7" d="M490.99,430.98C490.99,430.98,490.99,430.98,490.99,430.98c-10.78-1.1-22-5.09-33.49-12.67
				c-60.98-40.27-103.86,26.23-103.86-29.16c0-41.31,32.93-76.78,79.98-92.16c13.88,12.97,25.71,28.11,34.95,44.87
				c10.76,19.48,18.02,41.14,20.95,64.16C490.57,414.18,491.08,422.51,490.99,430.98z"/>
			<path class="st7" d="M310.02,609.53c-0.24,0.15-0.47,0.3-0.7,0.45h-0.01c-5.49-0.02-10.93-0.29-16.29-0.79
				c-26.17-2.46-50.71-10.49-72.43-22.9c36.21-18.17,87.23-38.09,85.44-17.49C304.23,589.46,285.24,601.89,310.02,609.53z"/>
			<path class="st7" d="M268.85,382.91c0,18.14-20.96,52.63-45.65,36.33c-19.96-13.18-34,8.59-34-9.55
				c0-18.14,19.39-32.84,43.32-32.84S268.85,364.77,268.85,382.91z"/>
		</g>
		<g>
			<path class="st6" d="M263.19,923.76h-11.36v-38.99c0-2.05,0.24-4.92,0.71-8.59l-10.2,40.36h-6.01l-10.25-40.36
				c0.47,3.74,0.71,6.6,0.71,8.59v38.99h-11.36v-79.05h11.16L239,888.41c0.13,0.47,0.24,1.67,0.3,3.59c0-0.84,0.1-2.04,0.3-3.59
				l12.43-43.69h11.16V923.76z"/>
			<path class="st6" d="M312.69,923.76h-11.72l-2.37-15h-14.8l-2.37,15h-11.67v-0.2l15.3-78.94h12.43L312.69,923.76z M296.93,898.61
				l-5.76-35.66l-5.81,35.66H296.93z"/>
			<path class="st6" d="M359.76,923.76h-12.32l-13.03-36.72v-7.12h11.62v-25.05h-14.9v68.89H319.3v-79.05h31.37
				c4.75,0,7.12,2.42,7.12,7.27v28.74c0,3.33-1.13,5.49-3.38,6.47c-1.21,0.51-3.77,0.76-7.68,0.76L359.76,923.76z"/>
			<path class="st6" d="M404.87,916.54c0,4.82-2.39,7.22-7.17,7.22H373.9c-4.75,0-7.12-2.41-7.12-7.22V897.7h11.82v16.11h14.45
				v-15.51l-23.69-22.43c-1.72-1.65-2.58-3.75-2.58-6.31v-17.58c0-4.85,2.37-7.27,7.12-7.27h23.79c3.96,0,7.17,3.21,7.17,7.17v17.68
				h-11.82v-14.9H378.6v14.29l23.69,22.32c1.72,1.62,2.58,3.76,2.58,6.41V916.54z"/>
		</g>
	</g>
</g>
</svg>
