<?xml version="1.0" encoding="utf-8"?>
<!-- Generator: Adobe Illustrator 23.0.5, SVG Export Plug-In . SVG Version: 6.00 Build 0)  -->
<svg version="1.1" id="Слой_1" xmlns="http://www.w3.org/2000/svg" xmlns:xmlnsXlink="http://www.w3.org/1999/xmlnsXlink" x="0px" y="0px"
	 viewBox="0 0 845 1161" style="enable-background:new 0 0 845 1161;" xml:space="preserve">
<style type="text/css">
	.st0{display:none;}
	.st1{fill:#DD9B26;}
	.st2{fill:#F4CA53;}
	.st3{fill:#C18421;}
	.st4{fill:#62A8DD;}
	.st5{fill:#659959;}
	.st6{fill:#B5331A;}
	.st7{fill:#992414;}
	.st8{fill:#DBA995;}
	.st9{fill:#F9BFAC;}
	.st10{fill:#774F44;}
	.st11{fill:#9E7263;}
	.st12{fill:#D1C699;}
	.st13{fill:#A59F84;}
	.st14{fill:#6073C6;}
	.st15{fill:#93A2D8;}
	.st16{fill:#B5C0E2;}
	.st17{fill:#4D6296;}
	.st18{fill:#7F5E36;}
	.st19{fill:#E1F9F9;stroke:#030505;stroke-width:0.6788;stroke-miterlimit:10;}
	.st20{fill:#F7D174;}
	.st21{fill:#E5A642;}
	.st22{fill:#BA8942;}
	.st23{fill:#A5793F;}
	.st24{fill:#E09E4F;}
	.st25{fill:#E8AA58;}
	.st26{fill:#F9C067;}
	.st27{fill:#F9E88A;}
	.st28{fill:#C1C1C1;}
	.st29{fill:#999595;}
	.st30{fill:#8096A0;}
	.st31{fill:#93AAB2;}
	.st32{fill:#C9E2E1;}
	.st33{fill:#E1F9F9;}
	.st34{fill:#F4F9F9;}
	.st35{fill:#EDA04C;}
	.st36{fill:#F4DA6C;}
	.st37{fill:#606060;}
	.st38{fill:#3A3A3A;}
	.st39{fill:#A5A5A5;}
	.st40{fill:#777674;}
	.st41{fill:#6E8E8B;}
	.st42{fill:#D18942;}
	.st43{fill:#A9D3D0;}
	.st44{fill:none;stroke:#FFFFFF;stroke-width:0.4022;stroke-miterlimit:10;}
	.st45{fill:#E56785;}
	.st46{fill:#7FE2EF;}
	.st47{fill:#C6AD93;}
	.st48{fill:#776851;}
	.st49{fill:#FFE888;}
	.st50{fill:#EDCC7A;}
	.st51{fill:#BBF5F9;}
	.st52{fill:#6BC0C6;}
</style>
<g>
	<g>
		<g>
			<g>
				<path class="st35" d="M575.11,529.72c53.48-57.92,105.16-126.15,105.16-145.28c0-29.2-120.42,65.23-183.85,97.28
					c47.58-59.4,212.81-210.14,179.59-210.14c-23.18,0-127.77,82.12-221.08,141.64c42.86-58.65,81.2-113.96,59.24-113.96
					c-27.95,0-146.74,89.63-226.7,161.69c-22,19.83-45.13,38.33-68.98,55.89c-44.75,32.96-73.25,82.68-73.25,138.3
					c0,99.23,90.69,179.67,202.56,179.67c67.41,0,127.14-29.21,163.96-74.14c6.72-8.2,13.46-16.38,20.38-24.41
					c52.44-60.86,131.09-172.38,131.09-188.92c0-14.64-61.64,48.68-112.16,96.37c60.48-58.6,136.41-146.11,137.9-167.88
					C690.33,456.11,630.29,494.73,575.11,529.72z"/>
			</g>
			<g>
				<path class="st36" d="M510.3,572.97c41.19-48.64,85.89-106.72,85.89-122.78c0-24.52-106.25,49.8-155.1,76.71
					c36.65-49.88,168.07-178.66,142.49-178.66c-17.85,0-100.78,62.31-172.65,112.3c33.01-49.25,62.54-95.7,45.63-95.7
					c-21.53,0-113.02,75.27-174.61,135.78c-16.94,16.65-34.76,32.19-53.13,46.94c-34.47,27.68-56.42,69.43-56.42,116.15
					c0,83.33,69.85,150.89,156.02,150.89c51.92,0,119.07-11.24,147.43-48.98c5.18-6.89,47.91-48.09,53.24-54.83
					c40.39-51.11,72.93-81.93,72.93-95.82c0-12.3-64.89,29.35-103.8,69.4c46.58-49.21,111.69-131.5,112.84-149.78
					C612.1,518.01,552.8,543.59,510.3,572.97z"/>
			</g>

				<ellipse transform="matrix(0.223 -0.9748 0.9748 0.223 -387.8573 852.955)" class="st37" cx="341.13" cy="669.78" rx="132.03" ry="162.1"/>
			<path class="st38" d="M351.43,796.65c-87.27-19.97-144.84-93.77-128.58-164.85c11.63-50.83,57.87-86.5,115.2-95.39
				c-74.72-4.44-140.71,35.05-154.94,97.22c-16.26,71.08,41.31,144.89,128.58,164.85c24.86,5.69,49.44,6.39,72.27,2.84
				C373.25,800.69,362.37,799.15,351.43,796.65z"/>
			<g>
				<g>
					<ellipse class="st35" cx="380.02" cy="609.63" rx="31.2" ry="25.02"/>
				</g>
			</g>
			<g>
				<g>

						<ellipse transform="matrix(0.223 -0.9748 0.9748 0.223 -303.2153 838.6632)" class="st36" cx="374.49" cy="609.54" rx="13.3" ry="16.58"/>
				</g>
			</g>
			<g>
				<g>
					<ellipse class="st35" cx="374.7" cy="523.92" rx="31.2" ry="25.02"/>
				</g>
			</g>
			<g>
				<g>

						<ellipse transform="matrix(0.9748 -0.223 0.223 0.9748 -107.2437 97.9869)" class="st36" cx="380.23" cy="523.83" rx="16.58" ry="13.3"/>
				</g>
			</g>
			<g>
				<g>
					<ellipse class="st35" cx="279.94" cy="789.57" rx="31.2" ry="25.02"/>
				</g>
			</g>
			<g>
				<g>
					<path class="st36" d="M301.63,785.78c-1.64-7.16-10.2-11.31-19.13-9.26c-8.93,2.04-14.84,9.5-13.2,16.66
						c1.64,7.16,10.2,11.31,19.13,9.26C297.36,800.4,303.27,792.94,301.63,785.78z"/>
				</g>
			</g>
			<g>
				<g>
					<ellipse class="st35" cx="361.39" cy="792.76" rx="33.86" ry="27.15"/>
				</g>
			</g>
			<g>
				<g>
					<ellipse class="st36" cx="370.13" cy="789.57" rx="20.33" ry="16.3"/>
				</g>
			</g>
			<g>
				<g>
					<ellipse class="st35" cx="308.15" cy="562.78" rx="40.46" ry="32.44"/>
				</g>
			</g>
			<g>
				<g>
					<ellipse class="st36" cx="318.59" cy="558.97" rx="24.29" ry="19.48"/>
				</g>
			</g>

				<ellipse transform="matrix(0.6728 -0.7399 0.7399 0.6728 -372.6774 548.1016)" class="st38" cx="433.26" cy="695.34" rx="34.07" ry="41.52"/>
			<circle class="st38" cx="263.17" cy="634.39" r="11.98"/>

				<ellipse transform="matrix(0.6052 -0.7961 0.7961 0.6052 -403.2029 515.8984)" class="st38" cx="318.53" cy="664.46" rx="21.29" ry="26.35"/>

				<ellipse transform="matrix(0.2577 -0.9662 0.9662 0.2577 -264.2836 885.8937)" class="st38" cx="444.44" cy="614.95" rx="13.31" ry="13.31"/>

				<ellipse transform="matrix(0.8275 -0.5614 0.5614 0.8275 -356.5667 274.6507)" class="st38" cx="268.76" cy="717.7" rx="13.31" ry="19.7"/>
		</g>
		<g>
			<path class="st35" d="M307.71,1075.02h-14.33v-49.17c0-2.59,0.3-6.2,0.89-10.83l-12.87,50.89h-7.58l-12.93-50.89
				c0.59,4.71,0.89,8.32,0.89,10.83v49.17h-14.33v-99.67h14.08l15.67,55.09c0.17,0.59,0.3,2.1,0.38,4.52c0-1.06,0.13-2.57,0.38-4.52
				l15.67-55.09h14.08V1075.02z"/>
			<path class="st35" d="M360.95,1075.02h-41.33v-99.67h40.95v13.18h-26.05v29.11h22.42v12.93h-22.42v31.27h26.43V1075.02z"/>
			<path class="st35" d="M414.45,988.53h-16.43v86.49h-14.84v-86.49h-16.43v-13.18h47.7V988.53z"/>
			<path class="st35" d="M463.36,1075.02h-41.33v-99.67h40.95v13.18h-26.05v29.11h22.42v12.93h-22.42v31.27h26.43V1075.02z"/>
			<path class="st35" d="M523.8,1065.91c0,6.07-3.02,9.11-9.04,9.11h-32.35c-5.9,0-8.85-3.04-8.85-9.11v-81.39
				c0-6.11,2.95-9.17,8.85-9.17h32.35c6.03,0,9.04,3.06,9.04,9.17V1065.91z M508.9,1062.22v-74.07h-20.44v74.07H508.9z"/>
			<path class="st35" d="M586.79,1075.02h-15.54l-16.43-46.3v-8.98h14.65v-31.59h-18.79v86.87h-14.9v-99.67h39.55
				c5.99,0,8.98,3.06,8.98,9.17v36.24c0,4.2-1.42,6.92-4.27,8.15c-1.53,0.64-4.76,0.96-9.68,0.96L586.79,1075.02z"/>
		</g>
	</g>
</g>
</svg>
