<?xml version="1.0" encoding="utf-8"?>
<!-- Generator: Adobe Illustrator 23.0.5, SVG Export Plug-In . SVG Version: 6.00 Build 0)  -->
<svg version="1.1" id="Слой_1" xmlns="http://www.w3.org/2000/svg" xmlns:xmlnsXlink="http://www.w3.org/1999/xmlnsXlink" x="0px" y="0px"
	 viewBox="0 0 764 849" style="enable-background:new 0 0 764 849;" xml:space="preserve">
<style type="text/css">
	.st0{display:none;}
	.st1{fill:#DD9B26;}
	.st2{fill:#F4CA53;}
	.st3{fill:#C18421;}
	.st4{fill:#62A8DD;}
	.st5{fill:#659959;}
	.st6{fill:#B5331A;}
	.st7{fill:#992414;}
	.st8{fill:#DBA995;}
	.st9{fill:#F9BFAC;}
	.st10{fill:#774F44;}
	.st11{fill:#9E7263;}
	.st12{fill:#D1C699;}
	.st13{fill:#A59F84;}
	.st14{fill:#6073C6;}
	.st15{fill:#93A2D8;}
	.st16{fill:#B5C0E2;}
	.st17{fill:#4D6296;}
	.st18{fill:#7F5E36;}
	.st19{fill:#E1F9F9;stroke:#030505;stroke-width:0.6788;stroke-miterlimit:10;}
	.st20{fill:#F7D174;}
	.st21{fill:#E5A642;}
	.st22{fill:#BA8942;}
	.st23{fill:#A5793F;}
	.st24{fill:#E09E4F;}
	.st25{fill:#E8AA58;}
	.st26{fill:#F9C067;}
	.st27{fill:#F9E88A;}
	.st28{fill:#C1C1C1;}
	.st29{fill:#999595;}
	.st30{fill:#8096A0;}
	.st31{fill:#93AAB2;}
	.st32{fill:#C9E2E1;}
	.st33{fill:#E1F9F9;}
	.st34{fill:#F4F9F9;}
	.st35{fill:#EDA04C;}
	.st36{fill:#F4DA6C;}
	.st37{fill:#606060;}
	.st38{fill:#3A3A3A;}
	.st39{fill:#A5A5A5;}
	.st40{fill:#777674;}
	.st41{fill:#6E8E8B;}
	.st42{fill:#D18942;}
	.st43{fill:#A9D3D0;}
	.st44{fill:none;stroke:#FFFFFF;stroke-width:0.4022;stroke-miterlimit:10;}
	.st45{fill:#E56785;}
	.st46{fill:#7FE2EF;}
	.st47{fill:#C6AD93;}
	.st48{fill:#776851;}
	.st49{fill:#FFE888;}
	.st50{fill:#EDCC7A;}
	.st51{fill:#BBF5F9;}
	.st52{fill:#6BC0C6;}
</style>
<g>
	<g>
		<g>
			<path class="st28" d="M564,282.39c0,0.56-0.01,1.12-0.01,1.68c-0.05,5.02-0.32,9.99-0.83,14.89c-3,30-14.11,57.62-31.1,80.64
				c-4.57,6.19-9.56,12.05-14.94,17.53c-3.74,3.82-7.68,7.45-11.78,10.89c-1.78,1.5-3.6,2.97-5.45,4.38
				c-16.73,12.86-36.02,22.55-56.97,28.2h0c-8.57,2.31-17.41,3.94-26.47,4.84c-5.36,0.54-10.79,0.8-16.29,0.8c-0.25,0-0.49,0-0.74,0
				h-0.01c-4.97-0.02-9.9-0.26-14.75-0.72c-23.7-2.23-45.94-9.5-65.61-20.74c-0.35-0.19-0.69-0.38-1.03-0.58
				c-9.85-5.72-19.06-12.44-27.46-20.02c-6.63-5.97-12.77-12.47-18.35-19.45c-9.76-12.19-17.82-25.8-23.8-40.47
				c-0.96-2.33-1.86-4.69-2.7-7.07c0,0,0,0,0,0c-0.51-1.44-1-2.87-1.47-4.32c-5.14-15.9-7.92-32.86-7.92-50.47
				c0-2.17,0.04-4.33,0.13-6.48c0.77-19.75,5.04-38.61,12.19-55.96c0.4-0.96,0.8-1.92,1.22-2.88c4.7-10.79,10.52-20.99,17.34-30.42
				c11.12-15.42,24.85-28.82,40.55-39.55c5.7-3.9,11.66-7.45,17.85-10.62c17.14-8.78,36.03-14.62,56.01-16.88
				c6.1-0.69,12.29-1.04,18.57-1.04c43.25,0,82.59,16.76,111.87,44.14c12.57,11.75,23.29,25.46,31.67,40.65
				c9.74,17.64,16.32,37.27,18.98,58.13C563.54,268.32,564,275.31,564,282.39z"/>
			<path class="st29" d="M467.63,191.69c-2.83,17.05-24.38,27.66-48.12,23.72s-14.03-24.41-24.29-38.31
				c-17.88-24.21,10.81-27.36,34.56-23.41C453.51,157.62,470.46,174.64,467.63,191.69z"/>
			<path class="st29" d="M499.55,164.33c-1.13,6.81-9.74,11.05-19.23,9.48c-9.49-1.58-5.61-9.75-9.71-15.31
				c-7.14-9.67,4.32-10.93,13.81-9.36C493.91,150.72,500.69,157.52,499.55,164.33z"/>
			<path class="st29" d="M392.86,280.41c-17.12,23.17-0.92,57.3-40.51,63.88c-0.03,0.01-0.06,0.01-0.09,0.02
				c-5.75,0.95-11.59-1.01-15.74-5.11c-18-17.82-32.45-39.21-42.22-63.02c-3.46-8.45-0.23-18.1,7.6-22.79
				c9.54-5.71,20.87-9.94,33.33-12.01C374.83,234.79,422.67,240.04,392.86,280.41z"/>
			<path class="st29" d="M386.51,133.09c0,14.5-22.35,20.67-42.09,7.64c-8.02-5.3-14.85-3.54-19.66-2.31
				c0.27-0.65,0.54-1.3,0.82-1.95c17.14-8.78,36.03-14.62,56.01-16.88C384.71,123.54,386.51,128.15,386.51,133.09z"/>
			<path class="st29" d="M467.15,348.95c0,22.14-25.58,64.24-55.71,44.34c-24.37-16.09-41.5,10.48-41.5-11.65
				c0-22.14,23.67-40.08,52.87-40.08C452.01,341.56,467.15,326.82,467.15,348.95z"/>
			<path class="st29" d="M377.97,192.93c-1.24,7.45-10.66,12.09-21.04,10.37c-10.38-1.73-6.13-10.67-10.62-16.75
				c-7.82-10.58,4.73-11.96,15.11-10.24C371.8,178.04,379.21,185.48,377.97,192.93z"/>
			<path class="st29" d="M522.94,373.85c-1.24,7.45-10.66,12.09-21.04,10.37c-10.38-1.73-6.13-10.67-10.62-16.75
				c-7.82-10.58,4.73-11.96,15.11-10.24C516.76,358.95,524.17,366.39,522.94,373.85z"/>
			<path class="st29" d="M304.84,217.03c-20.23-4.73-38.58,11.61-55,0.04c4.7-10.79,10.53-20.99,17.34-30.42
				c11.12-15.42,24.85-28.82,40.54-39.55c3,3.34,5.81,7.02,8.38,11.01C334.82,187.2,346.97,226.86,304.84,217.03z"/>
			<path class="st29" d="M400.05,445.83c-0.21,0.14-0.42,0.27-0.64,0.41h-0.01c-4.97-0.02-9.9-0.26-14.76-0.72
				c-23.7-2.23-45.94-9.5-65.61-20.74c32.81-16.46,79.02-34.51,77.4-15.84C394.8,427.64,377.6,438.91,400.05,445.83z"/>
		</g>
		<g>
			<path class="st28" d="M344.73,744.02h-12.54v-43.04c0-2.27,0.26-5.43,0.78-9.48l-11.26,44.55h-6.63l-11.32-44.55
				c0.52,4.13,0.78,7.29,0.78,9.48v43.04h-12.54v-87.25h12.32l13.72,48.23c0.15,0.52,0.26,1.84,0.33,3.96
				c0-0.93,0.11-2.25,0.33-3.96l13.72-48.23h12.32V744.02z"/>
			<path class="st28" d="M399.15,736.04c0,5.32-2.64,7.97-7.92,7.97h-28.32c-5.17,0-7.75-2.66-7.75-7.97v-71.25
				c0-5.35,2.58-8.03,7.75-8.03h28.32c5.28,0,7.92,2.68,7.92,8.03V736.04z M386.1,732.81v-64.84h-17.9v64.84H386.1z"/>
			<path class="st28" d="M453.62,736.04c0,5.32-2.64,7.97-7.92,7.97h-28.32c-5.17,0-7.75-2.66-7.75-7.97v-71.25
				c0-5.35,2.58-8.03,7.75-8.03h28.32c5.28,0,7.92,2.68,7.92,8.03V736.04z M440.57,732.81v-64.84h-17.9v64.84H440.57z"/>
			<path class="st28" d="M508.31,744.02h-11.43l-20.91-54.92c0.56,2.68,0.84,4.78,0.84,6.3v48.62H464.1v-87.25h11.43l20.91,53.8
				c-0.56-2.68-0.84-4.78-0.84-6.3v-47.5h12.71V744.02z"/>
		</g>
	</g>
</g>
</svg>
