<?xml version="1.0" encoding="utf-8"?>
<!-- Generator: Adobe Illustrator 23.0.5, SVG Export Plug-In . SVG Version: 6.00 Build 0)  -->
<svg version="1.1" id="Слой_1" xmlns="http://www.w3.org/2000/svg" xmlns:xmlnsXlink="http://www.w3.org/1999/xmlnsXlink" x="0px" y="0px"
	 viewBox="0 0 694 957" style="enable-background:new 0 0 694 957;" xml:space="preserve">
<style type="text/css">
	.st0{display:none;}
	.st1{fill:#DD9B26;}
	.st2{fill:#F4CA53;}
	.st3{fill:#C18421;}
	.st4{fill:#62A8DD;}
	.st5{fill:#659959;}
	.st6{fill:#B5331A;}
	.st7{fill:#992414;}
	.st8{fill:#DBA995;}
	.st9{fill:#F9BFAC;}
	.st10{fill:#774F44;}
	.st11{fill:#9E7263;}
	.st12{fill:#D1C699;}
	.st13{fill:#A59F84;}
	.st14{fill:#6073C6;}
	.st15{fill:#93A2D8;}
	.st16{fill:#B5C0E2;}
	.st17{fill:#4D6296;}
	.st18{fill:#7F5E36;}
	.st19{fill:#E1F9F9;stroke:#030505;stroke-width:0.6788;stroke-miterlimit:10;}
	.st20{fill:#F7D174;}
	.st21{fill:#E5A642;}
	.st22{fill:#BA8942;}
	.st23{fill:#A5793F;}
	.st24{fill:#E09E4F;}
	.st25{fill:#E8AA58;}
	.st26{fill:#F9C067;}
	.st27{fill:#F9E88A;}
	.st28{fill:#C1C1C1;}
	.st29{fill:#999595;}
	.st30{fill:#8096A0;}
	.st31{fill:#93AAB2;}
	.st32{fill:#C9E2E1;}
	.st33{fill:#E1F9F9;}
	.st34{fill:#F4F9F9;}
	.st35{fill:#EDA04C;}
	.st36{fill:#F4DA6C;}
	.st37{fill:#606060;}
	.st38{fill:#3A3A3A;}
	.st39{fill:#A5A5A5;}
	.st40{fill:#777674;}
	.st41{fill:#6E8E8B;}
	.st42{fill:#D18942;}
	.st43{fill:#A9D3D0;}
	.st44{fill:none;stroke:#FFFFFF;stroke-width:0.4022;stroke-miterlimit:10;}
	.st45{fill:#E56785;}
	.st46{fill:#7FE2EF;}
	.st47{fill:#C6AD93;}
	.st48{fill:#776851;}
	.st49{fill:#FFE888;}
	.st50{fill:#EDCC7A;}
	.st51{fill:#BBF5F9;}
	.st52{fill:#6BC0C6;}
</style>
<g>
	<g>
		<g>
			<path class="st14" d="M614,303.19c0,34.04-7.12,66.4-19.95,95.71c-9.66,22.04-22.54,42.35-38.06,60.31
				c-16.02,18.55-34.84,34.6-55.82,47.5c0,0,0,0.01-0.01,0.01c-36.35,22.37-79.15,35.27-124.97,35.27
				c-38.55,0-74.96-9.13-107.19-25.36c0,0,0,0-0.01,0c-15.01-7.55-29.11-16.64-42.11-27.06c-9.68-7.77-18.74-16.27-27.1-25.43
				c-25.17-27.56-43.96-61.05-54.04-98.12c-5.45-20.02-8.35-41.09-8.35-62.84c0-131.89,106.91-238.8,238.8-238.8
				c43.65,0,84.56,11.71,119.76,32.16c35.7,20.74,65.54,50.46,86.41,86.07c3.79,6.46,7.28,13.11,10.46,19.95
				c5.3,11.39,9.73,23.27,13.19,35.55c5.43,19.22,8.52,39.42,8.92,60.29C613.98,300,614,301.6,614,303.19z"/>
			<path class="st15" d="M581.37,182.63c-21.14,1.89-44.09,2.93-68.08,2.93c-105.26,0-190.59-19.97-190.59-44.61
				c0-23.18,75.6-42.23,172.26-44.4C530.66,117.29,560.5,147.01,581.37,182.63z"/>
			<path class="st15" d="M556,459.21c-16.02,18.55-34.84,34.6-55.82,47.5c0,0,0,0.01-0.01,0.01c-7.92,1.02-16.33,1.57-25.04,1.57
				c-47.49,0-85.99-16.39-85.99-36.6c0-20.21,38.5-36.6,85.99-36.6C512.33,435.09,544.01,445.14,556,459.21z"/>
			<path class="st16" d="M389.73,411.26c0,29.84-70.88,54.04-158.33,54.04c-11.17,0-22.08-0.4-32.6-1.15
				c-25.17-27.56-43.96-61.05-54.04-98.12c24.89-5.57,54.66-8.8,86.64-8.8C318.84,357.23,389.73,381.42,389.73,411.26z"/>
			<path class="st17" d="M614,303.19c0,34.04-7.12,66.4-19.95,95.71c-3.79,0.09-7.62,0.14-11.48,0.14
				c-85.06,0-154.02-22.76-154.02-50.85c0-28.08,68.96-50.85,154.02-50.85c10.75,0,21.25,0.37,31.38,1.06
				C613.98,300,614,301.6,614,303.19z"/>
			<ellipse class="st16" cx="428.55" cy="247.7" rx="59.47" ry="27.65"/>
			<ellipse class="st17" cx="248.64" cy="220.04" rx="80.28" ry="35.68"/>
			<ellipse class="st16" cx="322.81" cy="275.58" rx="39.38" ry="18.31"/>
			<path class="st16" d="M605.02,238.12c-21.68-0.04-39.22-8.22-39.22-18.31c0-7.94,10.85-14.69,26.03-17.23
				C597.13,213.96,601.55,225.84,605.02,238.12z"/>
			<path class="st16" d="M299.44,498.7c0,8.85-13.49,16.23-31.43,17.94c0,0,0,0-0.01,0c-15.01-7.55-29.11-16.64-42.11-27.06
				c6.8-5.49,19.55-9.19,34.16-9.19C281.81,480.38,299.44,488.58,299.44,498.7z"/>
		</g>
		<g>
			<path class="st16" d="M237.71,824.62h-12.45l-22.78-59.84c0.61,2.92,0.91,5.2,0.91,6.87v52.98h-13.85v-95.08h12.45l22.78,58.63
				c-0.61-2.92-0.91-5.2-0.91-6.87v-51.76h13.85V824.62z"/>
			<path class="st16" d="M288.57,824.62h-39.43v-95.08h39.06v12.58h-24.85v27.76h21.39v12.33h-21.39v29.83h25.21V824.62z"/>
			<path class="st16" d="M344.22,781.31c0,5.91-2.9,8.87-8.69,8.87H312.5v34.45h-14.22v-95.08h37.24c5.79,0,8.69,2.92,8.69,8.75
				V781.31z M329.88,777.97v-36.21H312.5v36.21H329.88z"/>
			<path class="st16" d="M395.61,742.12h-15.67v82.5h-14.16v-82.5h-15.67v-12.58h45.5V742.12z"/>
			<path class="st16" d="M450.41,815.94c0,5.79-2.92,8.69-8.75,8.69h-30.19c-5.75,0-8.63-2.9-8.63-8.69v-86.39h14.22v82.87h19.14
				v-82.87h14.22V815.94z"/>
			<path class="st16" d="M510.01,824.62h-12.45l-22.78-59.84c0.61,2.92,0.91,5.2,0.91,6.87v52.98h-13.85v-95.08h12.45l22.78,58.63
				c-0.61-2.92-0.91-5.2-0.91-6.87v-51.76h13.85V824.62z"/>
			<path class="st16" d="M560.86,824.62h-39.43v-95.08h39.06v12.58h-24.85v27.76h21.39v12.33h-21.39v29.83h25.21V824.62z"/>
		</g>
	</g>
</g>
</svg>
