<?xml version="1.0" encoding="utf-8"?>
<!-- Generator: Adobe Illustrator 23.0.5, SVG Export Plug-In . SVG Version: 6.00 Build 0)  -->
<svg version="1.1" id="Слой_1" xmlns="http://www.w3.org/2000/svg" xmlns:xmlnsXlink="http://www.w3.org/1999/xmlnsXlink" x="0px" y="0px"
	 viewBox="0 0 489 812" style="enable-background:new 0 0 489 812;" xml:space="preserve">
<style type="text/css">
	.st0{display:none;}
	.st1{fill:#DD9B26;}
	.st2{fill:#F4CA53;}
	.st3{fill:#C18421;}
	.st4{fill:#62A8DD;}
	.st5{fill:#659959;}
	.st6{fill:#B5331A;}
	.st7{fill:#992414;}
	.st8{fill:#DBA995;}
	.st9{fill:#F9BFAC;}
	.st10{fill:#774F44;}
	.st11{fill:#9E7263;}
	.st12{fill:#D1C699;}
	.st13{fill:#A59F84;}
	.st14{fill:#6073C6;}
	.st15{fill:#93A2D8;}
	.st16{fill:#B5C0E2;}
	.st17{fill:#4D6296;}
	.st18{fill:#7F5E36;}
	.st19{fill:#E1F9F9;stroke:#030505;stroke-width:0.6788;stroke-miterlimit:10;}
	.st20{fill:#F7D174;}
	.st21{fill:#E5A642;}
	.st22{fill:#BA8942;}
	.st23{fill:#A5793F;}
	.st24{fill:#E09E4F;}
	.st25{fill:#E8AA58;}
	.st26{fill:#F9C067;}
	.st27{fill:#F9E88A;}
	.st28{fill:#C1C1C1;}
	.st29{fill:#999595;}
	.st30{fill:#8096A0;}
	.st31{fill:#93AAB2;}
	.st32{fill:#C9E2E1;}
	.st33{fill:#E1F9F9;}
	.st34{fill:#F4F9F9;}
	.st35{fill:#EDA04C;}
	.st36{fill:#F4DA6C;}
	.st37{fill:#606060;}
	.st38{fill:#3A3A3A;}
	.st39{fill:#A5A5A5;}
	.st40{fill:#777674;}
	.st41{fill:#6E8E8B;}
	.st42{fill:#D18942;}
	.st43{fill:#A9D3D0;}
	.st44{fill:none;stroke:#FFFFFF;stroke-width:0.4022;stroke-miterlimit:10;}
	.st45{fill:#E56785;}
	.st46{fill:#7FE2EF;}
	.st47{fill:#C6AD93;}
	.st48{fill:#776851;}
	.st49{fill:#FFE888;}
	.st50{fill:#EDCC7A;}
	.st51{fill:#BBF5F9;}
	.st52{fill:#6BC0C6;}
</style>
<g>
	<g>
		<g>
			<path class="st12" d="M380.63,231.14c0,30.06-11.42,57.45-30.15,78.07c-6.75,7.43-14.45,13.98-22.91,19.46
				c-18.16,11.77-39.82,18.61-63.07,18.61c-26.67,0-51.24-8.99-70.85-24.1c-26.13-20.14-43.44-51.16-45.15-86.27
				c-0.1-1.91-0.14-3.83-0.14-5.77c0-12.61,2.01-24.76,5.73-36.14c3.64-11.14,8.93-21.54,15.57-30.92
				c14.46-20.41,35.34-35.95,59.71-43.67c0,0,0,0,0,0c11.08-3.52,22.88-5.41,35.13-5.41c11.61,0,22.83,1.71,33.42,4.88
				C345.76,134.23,380.63,178.61,380.63,231.14z"/>
			<path class="st13" d="M380.63,231.14c0,30.06-11.42,57.45-30.15,78.07c-7.05-5.62-10.64-12.27-4.73-19.32
				c16.53-19.74-93.65-22.95-105.12-49.12s89.97,24.33,108.79-9.64c18.82-33.97-31.67,5.51-60.14-38.56
				c-13.76-21.31-4.55-49.38,8.63-72.7C345.76,134.23,380.63,178.61,380.63,231.14z"/>
			<path class="st13" d="M279.18,135.65c-17.44,15.61-53.71,0.92-46.82,13.77c5.27,9.83-40.78,13.49-62.71,14.66
				c14.46-20.41,35.34-35.95,59.71-43.67c0,0,0,0,0,0C255.49,121.8,290.46,125.56,279.18,135.65z"/>
			<path class="st13" d="M268.16,288.98c-28.46,12.39-96.86,13.77-95.94-4.13c0.92-17.9,6.43-30.3-8.72-38.56
				c-4.24-2.31-9.55-5.7-15.01-9.38c-0.1-1.91-0.14-3.83-0.14-5.77c0-12.61,2.01-24.76,5.73-36.14
				c26.48,1.05,73.88,0.98,85.62-12.06c16.53-18.36,63.35,5.97,24.79,17.9c-38.56,11.94-95.94,17.44-74.37,25.71
				c21.58,8.26,40.86,21.58,17.44,28.92c-23.41,7.34,8.26,22.03,26.17,22.03S296.62,276.58,268.16,288.98z"/>
			<path class="st13" d="M327.56,328.67c-18.16,11.77-39.82,18.61-63.07,18.61c-26.67,0-51.24-8.99-70.85-24.1
				c12.45,2.22,27.75,2.33,41.01-5.27c28-16.07,91.35-44.99,89.51-23.87C322.64,311.6,306.49,322.17,327.56,328.67z"/>
		</g>
		<g>
			<path class="st13" d="M185.72,714.37c0,5.63-2.76,8.45-8.27,8.45h-21.93v32.8h-13.54v-90.54h35.47c5.52,0,8.27,2.78,8.27,8.33
				V714.37z M172.07,711.19v-34.48h-16.55v34.48H172.07z"/>
			<path class="st13" d="M230.91,755.62h-35.58v-90.54h13.54v78.45h22.04V755.62z"/>
			<path class="st13" d="M284.25,747.35c0,5.52-2.78,8.27-8.33,8.27h-28.75c-5.48,0-8.22-2.76-8.22-8.27v-82.27h13.54V744h18.22
				v-78.91h13.54V747.35z"/>
			<path class="st13" d="M334.47,677.06h-14.93v78.57h-13.48v-78.57h-14.93v-11.98h43.33V677.06z"/>
			<path class="st13" d="M387,747.35c0,5.52-2.74,8.27-8.22,8.27h-29.39c-5.36,0-8.04-2.76-8.04-8.27v-73.94
				c0-5.55,2.68-8.33,8.04-8.33h29.39c5.48,0,8.22,2.78,8.22,8.33V747.35z M373.46,744v-67.29h-18.57V744H373.46z"/>
		</g>
	</g>
</g>
</svg>
