<?xml version="1.0" encoding="utf-8"?>
<!-- Generator: Adobe Illustrator 23.0.5, SVG Export Plug-In . SVG Version: 6.00 Build 0)  -->
<svg version="1.1" id="Слой_1" xmlns="http://www.w3.org/2000/svg" xmlns:xmlnsXlink="http://www.w3.org/1999/xmlnsXlink" x="0px" y="0px"
	 viewBox="0 0 550 910" style="enable-background:new 0 0 550 910;" xml:space="preserve">
<style type="text/css">
	.st0{display:none;}
	.st1{fill:#DD9B26;}
	.st2{fill:#F4CA53;}
	.st3{fill:#C18421;}
	.st4{fill:#62A8DD;}
	.st5{fill:#659959;}
	.st6{fill:#B5331A;}
	.st7{fill:#992414;}
	.st8{fill:#DBA995;}
	.st9{fill:#F9BFAC;}
	.st10{fill:#774F44;}
	.st11{fill:#9E7263;}
	.st12{fill:#D1C699;}
	.st13{fill:#A59F84;}
	.st14{fill:#6073C6;}
	.st15{fill:#93A2D8;}
	.st16{fill:#B5C0E2;}
	.st17{fill:#4D6296;}
	.st18{fill:#7F5E36;}
	.st19{fill:#E1F9F9;stroke:#030505;stroke-width:0.6788;stroke-miterlimit:10;}
	.st20{fill:#F7D174;}
	.st21{fill:#E5A642;}
	.st22{fill:#BA8942;}
	.st23{fill:#A5793F;}
	.st24{fill:#E09E4F;}
	.st25{fill:#E8AA58;}
	.st26{fill:#F9C067;}
	.st27{fill:#F9E88A;}
	.st28{fill:#C1C1C1;}
	.st29{fill:#999595;}
	.st30{fill:#8096A0;}
	.st31{fill:#93AAB2;}
	.st32{fill:#C9E2E1;}
	.st33{fill:#E1F9F9;}
	.st34{fill:#F4F9F9;}
	.st35{fill:#EDA04C;}
	.st36{fill:#F4DA6C;}
	.st37{fill:#606060;}
	.st38{fill:#3A3A3A;}
	.st39{fill:#A5A5A5;}
	.st40{fill:#777674;}
	.st41{fill:#6E8E8B;}
	.st42{fill:#D18942;}
	.st43{fill:#A9D3D0;}
	.st44{fill:none;stroke:#FFFFFF;stroke-width:0.4022;stroke-miterlimit:10;}
	.st45{fill:#E56785;}
	.st46{fill:#7FE2EF;}
	.st47{fill:#C6AD93;}
	.st48{fill:#776851;}
	.st49{fill:#FFE888;}
	.st50{fill:#EDCC7A;}
	.st51{fill:#BBF5F9;}
	.st52{fill:#6BC0C6;}
</style>
<g>
	<g>
		<g>
			<g>
				<g>
					<path class="st35" d="M236.05,461.23c-8.75,25.7-15.49,54.4-12.82,60.42c4.08,9.19,28.8-37.35,44.3-56.29
						c-6.69,25.34-37.66,95.86-27.2,91.23c7.3-3.24,28.76-43.69,49.82-75.46c-5.31,24.45-9.65,47.21-2.74,44.15
						c8.8-3.9,35.03-34.86,50.14-68.71c4.16-9.31,1.38-42.26,6.44-51.12c9.49-16.62,17.64-26.2,9.87-43.71
						c-13.85-31.24-53.63-43.9-88.85-28.28c-21.22,9.41-21.82,10.14-27.14,29.43c-0.97,3.52-11.98,14.32-23.95,36.8
						c-13,24.42-10.38,63.1-8.07,68.31c2.04,4.61,12.61-23.93,21.86-46c-10.86,26.89-22.54,65.04-19.97,72.1
						C210.06,500.49,223.57,479.95,236.05,461.23z"/>
				</g>
			</g>
			<g>
				<g>
					<path class="st36" d="M253.49,435.07c-5.78,19.7-11.35,42.63-9.26,47.36c3.2,7.22,24.78-28.53,35.64-42.83
						c-4.28,19.47-26.15,74.53-18.62,71.19c5.25-2.33,21.53-31.5,36.16-55.6c-3.29,18.81-5.92,36.34-0.94,34.13
						c6.34-2.81,24.75-13.68,34.98-39.54c2.81-7.11,4.72-37.24,8.2-43.98c6.53-12.65,7.54-27.8,1.45-41.56
						c-10.88-24.53-40.26-35.3-65.63-24.05c-15.29,6.78-27.07,23.28-37.01,33.66c-1.92,2-16.04,24.65-16.72,27.34
						c-5.22,20.32-2.56,29.4-0.75,33.49c1.61,3.62,15.27-17.11,21.5-33.98c-7.29,20.57-15.71,53.29-13.66,58.82
						C230.69,464.54,244.81,449.27,253.49,435.07z"/>
				</g>
			</g>
			<path class="st45" d="M177.01,430.66l80.84-131.01l-41.46,11.53c-25.57,7.11-42.89,30.87-41.84,57.39L177.01,430.66z"/>
			<path class="st31" d="M179.88,351.98l2.46,62.1l69.6-112.8l5.91-1.64l-80.84,131.01l-2.46-62.1c-0.39-9.92,1.78-19.45,6-27.87
				C179.97,344.37,179.73,348.15,179.88,351.98z"/>
			<path class="st45" d="M359.48,489.36l10.72-153.57l26.96,33.54c16.63,20.68,16.85,50.09,0.53,71.02L359.48,489.36z"/>
			<path class="st31" d="M403.02,423.77l-38.21,49.02l9.23-132.22l-3.84-4.78l-10.72,153.57l38.21-49.02
				c6.1-7.83,9.89-16.84,11.37-26.14C407.39,417.54,405.38,420.74,403.02,423.77z"/>
			<path class="st32" d="M390.1,344.51c-88.51,37.98-133.84-16.99-152.84-48.71c14.38-24.78,36.68-59.51,59.8-87.25
				c15.41,21.61,44.94,48.09,95.52,31.74C394.99,275.86,392.86,316.31,390.1,344.51z"/>
			<path class="st32" d="M391.51,227.83c-43.54,11.57-70.61-9.3-86.11-28.94l0,0c6.29-7,12.58-13.34,18.73-18.68
				c12.91,14.98,33,27.77,63.12,20.95C389.12,209.27,390.51,218.28,391.51,227.83z"/>
			<path class="st45" d="M387.25,201.17c-30.12,6.82-50.21-5.98-63.12-20.95c14.86-12.91,28.87-19.96,40.02-16.37
				C375.44,167.48,382.74,181.66,387.25,201.17z"/>
			<path class="st45" d="M392.57,240.29c-50.58,16.35-80.11-10.13-95.52-31.74c2.78-3.33,5.56-6.56,8.35-9.66
				c15.5,19.63,42.57,40.5,86.11,28.94C391.93,231.9,392.28,236.06,392.57,240.29z"/>
			<path class="st45" d="M388.17,361.65c-95.14,43.63-141.72-18.78-159.67-50.19c2.42-4.51,5.37-9.8,8.76-15.65
				c19.01,31.71,64.33,86.68,152.84,48.71C389.47,350.92,388.81,356.7,388.17,361.65z"/>
			<path class="st32" d="M385.17,378.91c-5.34,16.6-52.24,37.13-97.47,22.58c-45.22-14.55-71.64-58.67-66.3-75.26
				c0.75-2.35,3.25-7.57,7.1-14.76c17.95,31.41,64.54,93.83,159.67,50.19C387.04,370.34,385.96,376.45,385.17,378.91z"/>
			<g>

					<ellipse transform="matrix(0.9816 -0.1908 0.1908 0.9816 -48.7887 67.2585)" class="st31" cx="324.85" cy="286.97" rx="30.69" ry="30.69"/>

					<ellipse transform="matrix(0.6744 -0.7384 0.7384 0.6744 -106.1168 333.2931)" class="st46" cx="324.85" cy="286.97" rx="22.6" ry="22.6"/>
			</g>
		</g>
		<g>
			<path class="st45" d="M181.65,762.02h-14.79l-15.64-44.08v-8.55h13.94v-30.07h-17.88v82.69h-14.19v-94.88h37.65
				c5.7,0,8.55,2.91,8.55,8.73v34.5c0,4-1.35,6.59-4.06,7.76c-1.46,0.61-4.53,0.91-9.22,0.91L181.65,762.02z"/>
			<path class="st45" d="M238.15,753.35c0,5.78-2.87,8.67-8.61,8.67h-30.8c-5.62,0-8.43-2.89-8.43-8.67v-77.48
				c0-5.82,2.81-8.73,8.43-8.73h30.8c5.74,0,8.61,2.91,8.61,8.73V753.35z M223.97,749.83v-70.51h-19.46v70.51H223.97z"/>
			<path class="st45" d="M296.23,753.35c0,5.78-2.89,8.67-8.67,8.67h-29.59c-5.62,0-8.43-2.89-8.43-8.67v-77.48
				c0-5.82,2.81-8.73,8.43-8.73h29.59c5.78,0,8.67,2.91,8.67,8.73v22.19h-14.13v-18.73h-18.37v70.51h18.37v-19.95h14.13V753.35z"/>
			<path class="st45" d="M355.22,762.02h-15.64l-18.01-42.32v42.32h-14.19v-94.88h14.19v40.13l15.76-40.13h15.52v0.67l-19.28,45.05
				L355.22,762.02z"/>
			<path class="st45" d="M400.27,762.02h-39.35v-94.88h38.98v12.55h-24.8v27.71h21.34v12.31h-21.34v29.77h25.16V762.02z"/>
			<path class="st45" d="M451.2,679.69h-15.64v82.33h-14.13v-82.33h-15.64v-12.55h45.41V679.69z"/>
		</g>
	</g>
</g>
</svg>
