<?xml version="1.0" encoding="utf-8"?>
<!-- Generator: Adobe Illustrator 23.0.5, SVG Export Plug-In . SVG Version: 6.00 Build 0)  -->
<svg version="1.1" id="Слой_1" xmlns="http://www.w3.org/2000/svg" xmlns:xmlnsXlink="http://www.w3.org/1999/xmlnsXlink" x="0px" y="0px"
	 viewBox="0 0 1138 1166" style="enable-background:new 0 0 1138 1166;" xml:space="preserve">
<style type="text/css">
	.st0{display:none;}
	.st1{fill:#DD9B26;}
	.st2{fill:#F4CA53;}
	.st3{fill:#C18421;}
	.st4{fill:#62A8DD;}
	.st5{fill:#659959;}
	.st6{fill:#B5331A;}
	.st7{fill:#992414;}
	.st8{fill:#DBA995;}
	.st9{fill:#F9BFAC;}
	.st10{fill:#774F44;}
	.st11{fill:#9E7263;}
	.st12{fill:#D1C699;}
	.st13{fill:#A59F84;}
	.st14{fill:#6073C6;}
	.st15{fill:#93A2D8;}
	.st16{fill:#B5C0E2;}
	.st17{fill:#4D6296;}
	.st18{fill:#7F5E36;}
	.st19{fill:#E1F9F9;stroke:#030505;stroke-width:0.6788;stroke-miterlimit:10;}
	.st20{fill:#F7D174;}
	.st21{fill:#E5A642;}
	.st22{fill:#BA8942;}
	.st23{fill:#A5793F;}
	.st24{fill:#E09E4F;}
	.st25{fill:#E8AA58;}
	.st26{fill:#F9C067;}
	.st27{fill:#F9E88A;}
	.st28{fill:#C1C1C1;}
	.st29{fill:#999595;}
	.st30{fill:#8096A0;}
	.st31{fill:#93AAB2;}
	.st32{fill:#C9E2E1;}
	.st33{fill:#E1F9F9;}
	.st34{fill:#F4F9F9;}
	.st35{fill:#EDA04C;}
	.st36{fill:#F4DA6C;}
	.st37{fill:#606060;}
	.st38{fill:#3A3A3A;}
	.st39{fill:#A5A5A5;}
	.st40{fill:#777674;}
	.st41{fill:#6E8E8B;}
	.st42{fill:#D18942;}
	.st43{fill:#A9D3D0;}
	.st44{fill:none;stroke:#FFFFFF;stroke-width:0.4022;stroke-miterlimit:10;}
	.st45{fill:#E56785;}
	.st46{fill:#7FE2EF;}
	.st47{fill:#C6AD93;}
	.st48{fill:#776851;}
	.st49{fill:#FFE888;}
	.st50{fill:#EDCC7A;}
	.st51{fill:#BBF5F9;}
	.st52{fill:#6BC0C6;}
</style>
<g>
	<g>
		<g>
			<path class="st18" d="M293.87,222.73c-2.48-10.28,3.84-20.61,14.11-23.09c10.27-2.47,20.6,3.85,23.07,14.13
				c2.48,10.28,4.63,31.58-5.63,34.06C315.15,250.3,296.35,233,293.87,222.73z"/>
			<path class="st19" d="M268.81,123.32c-1.69,0.53-3.38,1.07-5.06,1.62c1.43-1.22,2.87-2.43,4.32-3.63
				C268.31,121.99,268.56,122.66,268.81,123.32z"/>
			<path class="st19" d="M999.82,485.71c-0.5-1.42-1.02-2.84-1.54-4.26c0.58-0.18,1.16-0.36,1.74-0.55
				C999.96,482.5,999.9,484.1,999.82,485.71z"/>
			<path class="st20" d="M853.69,420.41c-7.63,1.46-15.4,2.64-23.3,3.56C837.98,421.58,846.06,421.87,853.69,420.41
				c-4.09-27.37-11.9-54.06-23.16-79.27c-27.9-62.49-76.99-115.95-143.21-148.48c-67.32-33.07-140.95-38.92-208.37-21.79
				c-25.65,6.51-50.41,16.36-73.58,29.29c-16.1,8.99-31.43,19.47-45.76,31.36c0.16,0.45,0.33,0.91,0.5,1.36
				c-1.15,0.36-2.29,0.73-3.43,1.1c-1.25,1.06-2.49,2.14-3.72,3.22c-1.23,1.08-2.46,2.18-3.68,3.29
				c-7.3,6.64-14.31,13.67-20.99,21.07c-9.6,10.64-18.52,22.06-26.67,34.22v0c-7.49,11.19-14.33,23.01-20.43,35.42
				c-1.03,2.1-2.03,4.2-3.01,6.31c-9.48,20.47-16.49,41.47-21.15,62.66c-14.74,67.17-5.8,136.3,23.06,196.4
				c28.42,59.16,76.16,109.58,139.64,140.77c63.3,31.1,132.16,38.12,196.2,24.61c65.43-13.79,125.83-49.02,170.11-101.89
				c0,0,0,0,0,0c13.94-16.63,26.27-35.02,36.67-55.03c1.07-2.06,2.12-4.14,3.15-6.24c6.1-12.42,11.27-25.05,15.55-37.82v0
				c4.65-13.88,8.23-27.92,10.78-42.02c0.6-3.32,1.15-6.64,1.63-9.96c1.46-9.97,2.42-19.96,2.87-29.93
				c-0.25-0.71-0.51-1.42-0.77-2.12c-0.09-0.26-0.18-0.51-0.28-0.77c0.39-0.12,0.79-0.24,1.18-0.38
				C857.49,457.19,856.41,438.65,853.69,420.41z"/>
			<path class="st21" d="M853.69,420.41c-7.63,1.46-15.4,2.64-23.3,3.56c-72.35,8.44-149.16-21.07-228.56-60.08
				c-79.34-38.98-147.39-80.59-184.94-142.95c-4.14-6.86-7.98-13.79-11.52-20.78c-16.1,8.99-31.43,19.47-45.76,31.36
				c0.16,0.45,0.33,0.91,0.5,1.36c30.22,81.92,92.44,179.43,193.53,229.09c101.17,49.7,218.67,40.41,302.02,14.19
				c0.39-0.12,0.79-0.24,1.18-0.38C857.49,457.19,856.41,438.65,853.69,420.41z"/>
			<path class="st22" d="M830.53,341.14c-24.45,0.23-49.76-1.94-75.45-6.58c-40.21-7.27-71.76-34.93-111.97-54.69
				c-38.96-19.14-83.29-28.34-113-54.68c-19.23-17.05-36.35-35.29-51.15-54.31c-25.65,6.51-50.41,16.36-73.58,29.29
				c3.54,6.98,7.38,13.91,11.52,20.78c37.55,62.36,91.48,111.74,158.72,169.12c70.96,60.55,165.22,62.16,254.78,33.91
				c7.59-2.39,15.67-2.1,23.3-3.56C849.6,393.04,841.79,366.35,830.53,341.14z"/>
			<path class="st22" d="M841.42,560.99c-86.81,41.31-209.99,37.35-325.51-19.4c-115.52-56.75-193.94-151.84-214.3-245.79
				c8.15-12.16,17.07-23.58,26.67-34.22c8.41,30.59,27.34,54.53,47.58,82.24C414.83,397.2,460,461.2,542.25,485.16
				c74.73,21.77,128.07,58.29,207.34,39.18c36.26-8.74,71.26,7.49,102.62-5.38C849.65,533.06,846.06,547.1,841.42,560.99z"/>
			<path class="st21" d="M822.72,605.05c-10.4,20.01-22.74,38.4-36.67,55.03c0,0,0,0,0,0c-86.22,37.09-205.15,31.6-316.9-23.3
				c-111.75-54.9-188.78-145.67-212.12-236.59c4.65-21.19,11.66-42.2,21.15-62.66c8.19,41.33,37.06,75.95,66.07,114.58
				c37.9,50.46,57.05,106.64,149.1,135.42C618.01,626.51,735.73,648.34,822.72,605.05z"/>
			<path class="st22" d="M786.04,660.08c-44.29,52.88-104.68,88.1-170.11,101.89c-59.4-1.31-123.34-16.56-185.08-46.9
				c-62.04-30.48-113.37-72.01-150.76-118.49c-28.87-60.1-37.8-129.23-23.06-196.4c23.34,90.92,117.02,149.04,217.93,221.98
				C550.4,676.7,699.82,697.18,786.04,660.08z"/>
			<path class="st23" d="M854.64,426.51c1.6,12.44,2.45,25.01,2.49,37.63c51.84,53.06,115.16,119.26,98.49,153.17
				c-14.25,29.01-93.04,21.21-148.23,14.19c-11.38-1.44-23.42-3.54-36.07-6.28l-0.01,0c-1.91-0.41-3.83-0.83-5.76-1.27l-0.01,0
				c-39.07-8.87-83.6-23.46-131.37-42.55c-0.01,0-0.01,0-0.01-0.01l-0.01,0c-36.02-14.41-73.89-31.38-112.65-50.42
				c-38.84-19.08-75.59-38.77-109.22-58.6l-0.01,0c-39.87-23.5-75.36-47.21-104.76-70.34l-0.01,0c-4.75-3.73-9.34-7.45-13.76-11.16
				c-9.89-8.27-18.94-16.45-27.09-24.51c-40.5-40.04-88.99-94.92-74.62-124.17c16.89-34.38,102.52-27.86,177.73-18.58
				c9.93-7.56,20.29-14.47,31.03-20.71c-142.15-36.01-283.36-46.5-311.36,10.49C62.55,268.13,145.82,381,250.26,473.59
				c27.06,24,57.61,47.85,91.15,70.8c0.01,0,0.01,0,0.01,0.01c40.64,27.83,85.67,54.35,134.21,78.24l0.69,0.34
				c33.58,16.5,67.08,30.87,100,43.17l0.02,0.01c14.83,5.55,29.54,10.66,44.09,15.36c0.01,0,0.01,0,0.01,0.01
				c38.79,12.55,76.41,22.12,111.98,28.8c136.14,25.59,281.84,25.29,308.71-29.39C1068.95,624.3,968.6,516.47,854.64,426.51z"/>

				<ellipse transform="matrix(0.4409 -0.8975 0.8975 0.4409 -173.3944 1205.8636)" class="st18" cx="881.26" cy="742.12" rx="19.35" ry="34.62"/>

				<ellipse transform="matrix(0.9464 -0.3229 0.3229 0.9464 -184.3393 344.1072)" class="st18" cx="945.07" cy="727.71" rx="16.29" ry="16.29"/>

				<ellipse transform="matrix(0.7122 -0.702 0.702 0.7122 -134.2598 223.5723)" class="st18" cx="205.54" cy="275.53" rx="22.06" ry="37.68"/>
			<path class="st18" d="M133.99,321.56c-2.66,5.41-19.1,2.52-24.51-0.14c-5.41-2.66-7.64-9.2-4.98-14.61
				c2.66-5.41,9.2-7.64,14.61-4.98C124.51,304.49,136.64,316.15,133.99,321.56z"/>

				<ellipse transform="matrix(0.4409 -0.8975 0.8975 0.4409 -197.2892 231.4364)" class="st18" cx="87.13" cy="274.08" rx="11.88" ry="24.44"/>

				<ellipse transform="matrix(0.4409 -0.8975 0.8975 0.4409 -165.8369 1280.8536)" class="st18" cx="945.24" cy="773.55" rx="7.81" ry="16.06"/>

				<ellipse transform="matrix(0.0399 -0.9992 0.9992 0.0399 165.6261 543.2834)" class="st18" cx="365.51" cy="185.46" rx="20.03" ry="20.03"/>
			<path class="st18" d="M324.05,182.87c-2.31,4.71-13.06,4.17-23.99-1.2c-10.94-5.37-17.93-13.55-15.61-18.26
				c2.31-4.71,13.06-4.17,23.99,1.2C319.38,169.98,326.37,178.15,324.05,182.87z"/>
		</g>
		<g>
			<path class="st21" d="M439.59,982.07c0,5.71-2.83,8.56-8.5,8.56H402.9c-5.63,0-8.44-2.85-8.44-8.56v-22.33h14.01v19.09h17.12
				v-18.38l-28.07-26.58c-2.04-1.96-3.05-4.45-3.05-7.48v-20.83c0-5.75,2.81-8.62,8.44-8.62h28.19c5.67,0,8.5,2.83,8.5,8.5v20.95
				h-14.01v-17.66h-17.12v16.94l28.07,26.46c2.04,1.92,3.05,4.45,3.05,7.6V982.07z"/>
			<path class="st21" d="M498.19,990.62H484.3l-2.81-17.78h-17.54l-2.81,17.78h-13.83v-0.24l18.14-93.55h14.72L498.19,990.62z
				 M479.51,960.82l-6.82-42.26l-6.88,42.26H479.51z"/>
			<path class="st21" d="M546.73,909.34h-15.44v81.28h-13.95v-81.28H501.9v-12.39h44.83V909.34z"/>
			<path class="st21" d="M600.72,982.07c0,5.71-2.87,8.56-8.62,8.56h-29.75c-5.67,0-8.5-2.85-8.5-8.56v-85.11h14.01v81.64h18.85
				v-81.64h14.01V982.07z"/>
			<path class="st21" d="M659.91,990.62h-14.6l-15.44-43.51v-8.44h13.77v-29.69h-17.66v81.64h-14.01v-93.67h37.17
				c5.63,0,8.44,2.87,8.44,8.62v34.06c0,3.95-1.34,6.5-4.01,7.66c-1.44,0.6-4.47,0.9-9.1,0.9L659.91,990.62z"/>
			<path class="st21" d="M715.94,990.62h-12.27l-22.45-58.96c0.6,2.87,0.9,5.13,0.9,6.76v52.19h-13.65v-93.67h12.27l22.45,57.76
				c-0.6-2.87-0.9-5.13-0.9-6.76v-51h13.65V990.62z"/>
		</g>
	</g>
</g>
</svg>
