<?xml version="1.0" encoding="utf-8"?>
<!-- Generator: Adobe Illustrator 23.0.5, SVG Export Plug-In . SVG Version: 6.00 Build 0)  -->
<svg version="1.1" id="Слой_1" xmlns="http://www.w3.org/2000/svg" xmlns:xmlnsXlink="http://www.w3.org/1999/xmlnsXlink" x="0px" y="0px"
	 viewBox="0 0 1028 1114" style="enable-background:new 0 0 1028 1114;" xml:space="preserve">
<style type="text/css">
	.st0{display:none;}
	.st1{fill:#DD9B26;}
	.st2{fill:#F4CA53;}
	.st3{fill:#C18421;}
	.st4{fill:#62A8DD;}
	.st5{fill:#659959;}
	.st6{fill:#B5331A;}
	.st7{fill:#992414;}
	.st8{fill:#DBA995;}
	.st9{fill:#F9BFAC;}
	.st10{fill:#774F44;}
	.st11{fill:#9E7263;}
	.st12{fill:#D1C699;}
	.st13{fill:#A59F84;}
	.st14{fill:#6073C6;}
	.st15{fill:#93A2D8;}
	.st16{fill:#B5C0E2;}
	.st17{fill:#4D6296;}
	.st18{fill:#7F5E36;}
	.st19{fill:#E1F9F9;stroke:#030505;stroke-width:0.6788;stroke-miterlimit:10;}
	.st20{fill:#F7D174;}
	.st21{fill:#E5A642;}
	.st22{fill:#BA8942;}
	.st23{fill:#A5793F;}
	.st24{fill:#E09E4F;}
	.st25{fill:#E8AA58;}
	.st26{fill:#F9C067;}
	.st27{fill:#F9E88A;}
	.st28{fill:#C1C1C1;}
	.st29{fill:#999595;}
	.st30{fill:#8096A0;}
	.st31{fill:#93AAB2;}
	.st32{fill:#C9E2E1;}
	.st33{fill:#E1F9F9;}
	.st34{fill:#F4F9F9;}
	.st35{fill:#EDA04C;}
	.st36{fill:#F4DA6C;}
	.st37{fill:#606060;}
	.st38{fill:#3A3A3A;}
	.st39{fill:#A5A5A5;}
	.st40{fill:#777674;}
	.st41{fill:#6E8E8B;}
	.st42{fill:#D18942;}
	.st43{fill:#A9D3D0;}
	.st44{fill:none;stroke:#FFFFFF;stroke-width:0.4022;stroke-miterlimit:10;}
	.st45{fill:#E56785;}
	.st46{fill:#7FE2EF;}
	.st47{fill:#C6AD93;}
	.st48{fill:#776851;}
	.st49{fill:#FFE888;}
	.st50{fill:#EDCC7A;}
	.st51{fill:#BBF5F9;}
	.st52{fill:#6BC0C6;}
</style>
<g>
	<g>
		<g>
			<path class="st32" d="M531.02,387.37c0,0-94.26,64.13-114.24,56.68c-19.99-7.46-44.51,13.4-68.15,49.05
				c0,0,57.36,13.3,104.82,34.17C494.38,545.26,531.02,387.37,531.02,387.37z"/>
			<path class="st32" d="M708.43,449.54c0,0-0.89,114,16.42,126.47c17.31,12.47,13.61,44.45-2.87,83.91c0,0-42.95-40.28-86.68-68.12
				C597.58,567.79,708.43,449.54,708.43,449.54z"/>
			<path class="st41" d="M523.61,392.3c-10.14,38.29-40.66,140.47-74.02,125.8c-36.28-15.95-78.36-27.49-96.16-32.03
				c-1.6,2.27-3.21,4.61-4.81,7.02c0,0,57.36,13.3,104.82,34.17c40.93,18,77.57-139.89,77.57-139.89S528.27,389.24,523.61,392.3z"/>
			<path class="st41" d="M645.56,590.49c-30.55-19.45,36.37-100.72,62.9-130.91c-0.06-6.26-0.03-10.04-0.03-10.04
				S597.58,567.79,635.3,591.8c43.73,27.84,86.68,68.12,86.68,68.12c1.1-2.64,2.14-5.24,3.13-7.8
				C711.12,639.6,678.56,611.5,645.56,590.49z"/>
			<g>
				<g>
					<path class="st35" d="M528.04,736.21c-19.16,39.45-33.27,45.26-42.99,49.04c-14.84,5.77-0.61-41.19,3.5-80.73
						c-21.04,36.65-47.91,98.12-54.29,80.73c-4.45-12.13-0.81-28.29,11.52-88.9c-21.57,34.03-42.31,65.04-46.53,53.54
						c-5.37-14.63-8.65-84.87,21.6-136.4c34.54-58.84,45.92-49.83,50.26-65.79c8.15-29.94,9.88-50.3,38.14-61.3
						c50.42-19.62,108.7,11.94,130.17,70.5c12.94,35.29,12.79,36.82-2.97,64.97c-2.88,5.14-2.8,30.19-14.78,69.69
						c-13.01,42.91-59.35,84.02-67.75,87.29c-7.44,2.9,12.9-41.89,27.43-77.77c-18.16,43.25-45.96,76.3-56.74,81.38
						C514.85,787.08,520.86,772.01,528.04,736.21z"/>
				</g>
			</g>
			<g>
				<g>
					<path class="st42" d="M445.78,684.77c-21.57,34.03-42.31,65.04-46.53,53.54c-1.65-4.51-3.11-14.29-3.45-27.18
						c-0.46,18.54,1.33,32.98,3.45,38.76c3.99,10.88,22.78-16.3,43.06-48.09C443.38,696.54,444.54,690.89,445.78,684.77z"/>
				</g>
				<g>
					<path class="st42" d="M488.55,692.94c-21.04,36.65-47.91,98.12-54.29,80.73c-0.72-1.96-1.23-4.03-1.52-6.37
						c-0.7,8.08-0.18,13.31,1.52,17.95c6.18,16.86,31.64-40.43,52.36-77.34C487.37,702.88,488.04,697.85,488.55,692.94z"/>
				</g>
				<g>
					<path class="st42" d="M636.45,610.29c-2.88,5.14-2.8,30.19-14.78,69.69c-12.59,41.5-56.35,81.32-66.81,86.84
						c-2.75,8.22-3.55,13.03-0.95,12.02c8.41-3.27,54.74-44.38,67.75-87.29c11.98-39.5,11.91-64.55,14.78-69.69
						c10.09-18.04,13.79-25.15,11.74-37.2C646.84,591.5,642.99,598.6,636.45,610.29z"/>
				</g>
				<g>
					<path class="st42" d="M528.04,724.63c-19.16,39.45-33.27,45.26-42.99,49.04c-3.63,1.41-5.51-0.33-6.24-4.35
						c-1.08,11.57,0.05,18.33,6.24,15.92c8.98-3.5,21.71-8.72,38.72-40.64C525.05,738.87,526.52,732.22,528.04,724.63z"/>
				</g>
				<g>
					<path class="st42" d="M581.34,689.51c-18.16,43.25-45.96,76.3-56.74,81.38c-1.95,0.92-3.27,1.05-4.08,0.39
						c-1.91,10.12-1.43,13.78,4.08,11.18c6.95-3.28,21-18.22,34.97-40.03C565.55,727.18,574.16,707.26,581.34,689.51z"/>
				</g>
			</g>
			<g>
				<g>
					<path class="st36" d="M538.1,686.19c-15.72,29.16-35.28,61.78-42.92,64.75c-11.65,4.53,4.59-61.21,8.6-90.1
						c-17.12,27.16-39.76,75.81-44.35,63.29c-3.2-8.74-3.44-21.36,7.41-65.78c-17.48,25.27-33.59,30.99-36.63,22.71
						c-3.86-10.54-1.96-29.52,15.73-70.85c4.87-11.37,25.84-45.37,29.55-57.09c6.96-21.99,22.86-40.46,45.05-49.09
						c39.59-15.41,84.23,6.29,99.69,48.46c9.32,25.41,3.84,57.88,3.19,81.22c-0.12,4.51-9.92,46.68-12.16,50.54
						c-17.03,29.22-17.59,22.03-24.19,24.6c-5.84,2.27-10.28-22.71,1.76-49.16c-15.02,31.9-40.93,65.59-49.41,69.54
						C531.76,732.79,531.77,712.43,538.1,686.19z"/>
				</g>
			</g>
			<path class="st32" d="M749.16,246.06c-49.37,8.54-77.32-17.24-92.56-40.51l0,0c7.66-7.14,15.25-13.54,22.58-18.85
				c12.84,17.86,33.84,34.01,67.87,29.41C748.33,225.26,748.99,235.38,749.16,246.06z"/>
			<path class="st43" d="M747.05,216.1c-34.03,4.6-55.03-11.55-67.87-29.42c11.4-8.26,22.17-13.87,31.6-15.47
				c5.24-0.89,10.06-0.55,14.35,1.26c4.21,1.78,7.76,4.92,10.74,9.17C741.49,189.68,745.04,201.69,747.05,216.1z"/>
			<path class="st43" d="M749.11,259.97c-57.65,13.15-87.76-19.09-102.71-44.54c3.4-3.42,6.8-6.72,10.19-9.88
				c15.24,23.27,43.18,49.05,92.56,40.51C749.22,250.6,749.21,255.25,749.11,259.97z"/>
			<path class="st32" d="M646.4,215.43c-28.33,28.47-56.45,64.76-74.82,90.79c-4.33,6.14-8.12,11.71-11.24,16.48c0,0,0,0,0,0
				c-36.77,54.59-88.92,196.16-89.99,198.68c-7.54,17.85,17.41,69.29,66.08,89.85c48.67,20.56,102.64,2.45,110.18-15.4
				c1.12-2.64,74.11-139.12,85.7-201.85c1.2-5.42,2.5-11.75,3.82-18.79c5.82-30.98,12.17-75.58,12.98-115.22
				C691.47,273.11,661.35,240.88,646.4,215.43z"/>
			<path class="st41" d="M646.4,215.43c-28.33,28.47-56.45,64.76-74.82,90.79c-4.33,6.14-8.12,11.71-11.24,16.48c0,0,0,0,0,0
				c-36.77,54.59-88.92,196.16-89.99,198.68c-7.54,17.85,17.41,69.29,66.08,89.85c48.67,20.56,102.64,2.45,110.18-15.4
				c1.12-2.64,74.11-139.12,85.7-201.85c1.2-5.42,2.5-11.75,3.82-18.79c5.82-30.98,12.17-75.58,12.98-115.22
				C691.47,273.11,661.35,240.88,646.4,215.43z M726.08,378.57c-1.22,6.48-2.41,12.32-3.51,17.31
				c-10.67,57.76-77.89,183.44-78.92,185.87c-6.94,16.44-56.64,33.11-101.46,14.18c-44.82-18.93-67.79-66.3-60.85-82.74
				c0.98-2.32,49-132.69,82.86-182.96c0,0,0,0,0,0c2.87-4.39,6.36-9.52,10.35-15.17c16.91-23.98,42.8-57.39,68.89-83.61
				c13.76,23.44,41.49,53.12,94.58,41.02C737.28,308.97,731.44,350.04,726.08,378.57z"/>
			<path class="st41" d="M547.72,590.64c-50.34-19.32-77.2-70.11-69.95-88.15c0.81-2.02-9.8,19.06-10.71,21.32
				c-7.25,18.03,19.61,68.83,69.95,88.15c50.34,19.32,105.09-0.15,112.35-18.18c0.23-0.57,3.67-7.35,9.02-18.26
				C646.64,592.56,595.22,608.86,547.72,590.64z"/>
			<g>
				<path class="st35" d="M575.93,622.32c-3-2.02-6.36-3.45-9.89-4.21c-8.02,11.68-23.46,34.66-35.96,56.03c0,0,0,0,0,0
					c-0.09,0.15-0.18,0.31-0.27,0.47c-5.25,9.04-8.97,18.9-11.02,29.16c-1.62,8.07-1.85,11.48-0.8,14.27
					c2.3,6.08,12.3-15.53,20.11-28.42c-1.6,13.86-6.93,30.36-1.48,28.29c3.57-1.35,8.76-3.42,15.89-17.29
					c-2.72,12.56-4.96,17.86-1.37,16.22c3.65-1.67,12.65-11.68,19.33-25.11c0.62-1.59,1.18-3.2,1.7-4.83
					C579.72,663.39,577.9,636.95,575.93,622.32z"/>
			</g>
			<g>
				<g>
					<path class="st42" d="M537.84,683.69c-7.8,12.9-17.81,34.5-20.11,28.42c-0.17-0.44-0.3-0.89-0.4-1.37
						c-0.42,3.42-0.28,5.49,0.4,7.3c2.18,5.77,11.31-13.41,18.91-26.4C537.1,688.99,537.54,686.3,537.84,683.69z"/>
				</g>
				<g>
					<path class="st42" d="M571.91,680.98c-0.52,1.63-1.09,3.24-1.7,4.83c-6.68,13.44-15.68,23.45-19.33,25.11
						c-0.45,0.21-0.81,0.3-1.09,0.29c-1.11,4.85-1.24,6.7,1.09,5.63c3.65-1.67,12.65-11.68,19.33-25.11c0.62-1.59,1.18-3.2,1.7-4.83
						c4.53-14.1,5.69-29.25,5.47-42.28C577.18,656.19,575.77,668.97,571.91,680.98z"/>
				</g>
				<g>
					<path class="st42" d="M552.24,694.7c-7.12,13.87-12.31,15.94-15.89,17.29c-1.1,0.42-1.76,0.07-2.11-0.85
						c-0.63,4.78-0.39,7.71,2.11,6.77c3.16-1.2,7.59-2.96,13.5-12.95C550.45,702.37,551.32,698.95,552.24,694.7z"/>
				</g>
			</g>
			<g>
				<path class="st36" d="M560.36,678.89c-2.33,1-2.29-4.63-0.32-11.89c-4.82,8.09-10.8,17.15-13.12,17.99
					c-3.53,1.28,1.51-16.94,2.79-24.93c-5.23,7.55-12.19,21.04-13.55,17.59c-0.66-1.68-0.39-3.46,0.98-8.57
					c1.42-5.31,3.9-10.29,7.27-14.64l0,0c10.32-16.87,17.05-29.48,23.67-38.7c2.91,0.6,5.68,1.73,8.16,3.32
					C577.86,630.59,562.93,677.78,560.36,678.89z"/>
			</g>
			<g>
				<g>
					<path class="st35" d="M430.6,638.05c-1.05,1.94-2.05,3.9-2.99,5.9c-6.6,18.23-7.92,35.57-6.22,40.46
						c1.67,4.82,4.62-2,13.93-15.75c-6.61,19.03-3.91,25.72-1.99,30.27c2.94,6.93,13.6-12.76,25.12-26.62
						c-5.09,18.8-16.36,47.41-8.63,44.14c3.55-1.51,6.52-4.77,12.62-13.47c7.75-11.06,13.65-23.33,17.42-36.3
						c0.07-0.23,0.13-0.46,0.2-0.68c0,0,0,0,0,0c8.83-30.75,16.52-65.67,20.29-83.58c-3.85-2.62-8.19-4.49-12.75-5.49
						C472.15,588.14,445.83,610.02,430.6,638.05z"/>
				</g>
			</g>
			<g>
				<g>
					<g>
						<path class="st42" d="M464.21,667.27c-5.09,18.8-16.36,47.41-8.63,44.14c0.56-0.24,1.1-0.51,1.64-0.85
							c-2.82,3.45-4.88,5.16-7.17,6.13c-7.34,3.11,2.45-22.53,7.81-41.22C459.91,672.68,462.04,669.87,464.21,667.27z"/>
					</g>
				</g>
				<g>
					<g>
						<path class="st42" d="M436.36,633.01c-1.05,1.94-2.05,3.9-2.99,5.9c-6.6,18.23-7.92,35.57-6.22,40.46
							c0.21,0.61,0.44,1.03,0.7,1.28c-3.53,5.36-5.16,7.13-6.24,4.01c-1.7-4.9-0.37-22.23,6.22-40.46c0.94-1.99,1.94-3.96,2.99-5.9
							c9.13-16.81,22.26-31.41,34.63-42.82C454.81,605.98,444.14,618.69,436.36,633.01z"/>
					</g>
				</g>
				<g>
					<g>
						<path class="st42" d="M441.07,663.62c-6.61,19.03-3.91,25.72-1.99,30.27c0.59,1.4,1.5,1.71,2.67,1.21
							c-3.91,4.85-6.86,7.24-8.21,4.07c-1.7-4.02-4-9.73,0.06-24.16C435.5,672.13,437.92,668.27,441.07,663.62z"/>
					</g>
				</g>
			</g>
			<g>
				<g>
					<path class="st36" d="M448.61,641.94c1.14,3.07,6.37-1.99,11.4-10.31c-3.27,11.72-6.39,25.39-5.11,28.3
						c1.96,4.44,14.48-16.52,20.81-24.84c-2.38,11.62-8.8,30.16-4.35,28.35c2.16-0.88,3.58-2.72,7.14-8.56
						c3.7-6.06,6.14-12.82,7.2-19.85l0,0c6.56-24.69,12.34-42.23,15.06-56.64c-3.16-2.19-6.69-3.77-10.38-4.67
						C478.13,582.51,447.35,638.54,448.61,641.94z"/>
				</g>
			</g>
			<path class="st43" d="M569.98,632.93L569.98,632.93c-10.63-3.92-16.07-15.71-12.15-26.34l24.37-66.07
				c3.92-10.63,15.71-16.07,26.34-12.15l0,0c10.63,3.92,16.07,15.71,12.15,26.34l-24.37,66.07
				C592.4,631.41,580.61,636.84,569.98,632.93z"/>
			<path class="st41" d="M580.23,618.09l-8.16-3.01c-8.37-3.09-12.66-12.38-9.57-20.76l22.05-59.79c-0.32,0.61-0.6,1.24-0.84,1.89
				l-27.38,74.23c-3.09,8.37,1.2,17.67,9.57,20.76l8.16,3.01c8.37,3.09,17.67-1.2,20.76-9.57l5.33-14.44
				C596.44,617.52,587.95,620.94,580.23,618.09z"/>
			<path class="st43" d="M489.27,597.39L489.27,597.39c9.96,5.4,22.41,1.71,27.81-8.24l33.59-61.9c5.4-9.96,1.71-22.41-8.24-27.81h0
				c-9.96-5.4-22.41-1.71-27.81,8.24l-33.59,61.9C475.62,579.53,479.31,591.98,489.27,597.39z"/>
			<path class="st41" d="M493.65,579.9l7.64,4.15c7.85,4.26,17.66,1.35,21.91-6.5l30.39-56.01c-0.25,0.64-0.53,1.27-0.87,1.88
				L515,592.96c-4.26,7.85-14.07,10.75-21.91,6.5l-7.64-4.15c-7.85-4.26-10.75-14.07-6.5-21.91l7.34-13.53
				C483.39,567.34,486.42,575.98,493.65,579.9z"/>
			<path class="st37" d="M536.98,521.4c0,3.67-2.91,6.64-6.5,6.64c-3.59,0-6.5-2.97-6.5-6.64s2.91-6.64,6.5-6.64
				C534.07,514.76,536.98,517.73,536.98,521.4z"/>
			<path class="st37" d="M605.36,554.78c0,3.67-2.91,6.64-6.5,6.64c-3.59,0-6.5-2.97-6.5-6.64s2.91-6.64,6.5-6.64
				C602.45,548.15,605.36,551.12,605.36,554.78z"/>
			<path class="st37" d="M652.02,247.88c0,3.67-2.91,6.64-6.5,6.64c-3.59,0-6.5-2.97-6.5-6.64c0-3.67,2.91-6.64,6.5-6.64
				C649.11,241.25,652.02,244.22,652.02,247.88z"/>
			<path class="st37" d="M685.8,278.86c0,3.67-2.91,6.64-6.5,6.64c-3.59,0-6.5-2.97-6.5-6.64c0-3.67,2.91-6.64,6.5-6.64
				C682.89,272.22,685.8,275.19,685.8,278.86z"/>
			<path class="st37" d="M731.66,282.48c0,3.67-2.91,6.64-6.5,6.64c-3.59,0-6.5-2.97-6.5-6.64s2.91-6.64,6.5-6.64
				C728.75,275.84,731.66,278.81,731.66,282.48z"/>
			<path class="st37" d="M735.88,181.65c-2.63,3-6.46,4.89-10.72,4.89c-7.94,0-14.38-6.57-14.38-14.68c0-0.22,0-0.43,0.02-0.64
				c5.24-0.89,10.06-0.55,14.35,1.26C729.35,174.26,732.9,177.4,735.88,181.65z"/>
			<path class="st37" d="M589.67,597.82c0,3.67-2.91,6.64-6.5,6.64c-3.59,0-6.5-2.97-6.5-6.64s2.91-6.64,6.5-6.64
				C586.76,591.19,589.67,594.16,589.67,597.82z"/>
			<ellipse class="st37" cx="711.08" cy="604.66" rx="10.84" ry="11.06"/>
			<ellipse class="st37" cx="404.18" cy="475.95" rx="10.84" ry="11.06"/>
			<path class="st37" d="M513.65,564.44c0,3.67-2.91,6.64-6.5,6.64s-6.5-2.97-6.5-6.64s2.91-6.64,6.5-6.64
				S513.65,560.77,513.65,564.44z"/>
			<path class="st37" d="M546.13,581.4L546.13,581.4c-1.8-0.78-2.63-2.87-1.86-4.67l25.82-59.97c0.78-1.8,2.87-2.63,4.67-1.86l0,0
				c1.8,0.78,2.63,2.87,1.86,4.67l-25.82,59.97C550.02,581.34,547.93,582.17,546.13,581.4z"/>
		</g>
		<g>
			<path class="st32" d="M260.25,947.09c0,5.95-2.96,8.93-8.87,8.93h-29.42c-5.87,0-8.81-2.98-8.81-8.93v-23.3h14.62v19.93h17.86
				v-19.18l-29.29-27.73c-2.12-2.04-3.19-4.64-3.19-7.81v-21.74c0-6,2.94-8.99,8.81-8.99h29.42c5.91,0,8.87,2.96,8.87,8.87V889
				h-14.62v-18.43h-17.86v17.68l29.3,27.61c2.12,2,3.19,4.64,3.19,7.93V947.09z"/>
			<path class="st32" d="M319.09,911.48c0,6.08-2.98,9.12-8.93,9.12h-23.67v35.42h-14.62v-97.75h38.29c5.95,0,8.93,3,8.93,8.99
				V911.48z M304.35,908.05v-37.23h-17.86v37.23H304.35z"/>
			<path class="st32" d="M378.99,956.02H364.5l-2.94-18.55h-18.3l-2.94,18.55H325.9v-0.25l18.93-97.63h15.37L378.99,956.02z
				 M359.5,924.91l-7.12-44.1l-7.18,44.1H359.5z"/>
			<path class="st32" d="M435.27,947.09c0,5.95-2.98,8.93-8.93,8.93h-30.48c-5.79,0-8.68-2.98-8.68-8.93v-79.83
				c0-6,2.89-8.99,8.68-8.99h30.48c5.95,0,8.93,3,8.93,8.99v22.86h-14.55v-19.3h-18.93v72.64h18.93v-20.55h14.55V947.09z"/>
			<path class="st32" d="M487.3,956.02h-40.54v-97.75h40.16v12.93h-25.55v28.55h21.99v12.68h-21.99v30.67h25.92V956.02z"/>
			<path class="st32" d="M570.5,947.09c0,5.95-2.96,8.93-8.87,8.93h-29.42c-5.87,0-8.81-2.98-8.81-8.93v-23.3h14.62v19.93h17.86
				v-19.18l-29.29-27.73c-2.12-2.04-3.19-4.64-3.19-7.81v-21.74c0-6,2.94-8.99,8.81-8.99h29.42c5.91,0,8.87,2.96,8.87,8.87V889
				h-14.62v-18.43h-17.86v17.68l29.3,27.61c2.12,2,3.19,4.64,3.19,7.93V947.09z"/>
			<path class="st32" d="M631.28,956.02h-14.74v-43.85h-19.8v43.85h-14.62v-97.75h14.62v40.29h19.8v-40.29h14.74V956.02z"/>
			<path class="st32" d="M691.81,947.09c0,5.95-3,8.93-8.99,8.93h-31.04c-5.91,0-8.87-2.98-8.87-8.93v-88.82h14.62v85.2h19.68v-85.2
				h14.62V947.09z"/>
			<path class="st32" d="M746.02,871.19h-16.12v84.82h-14.55v-84.82h-16.12v-12.93h46.78V871.19z"/>
			<path class="st32" d="M795.93,871.19h-16.12v84.82h-14.55v-84.82h-16.12v-12.93h46.78V871.19z"/>
			<path class="st32" d="M841.78,956.02h-38.41v-97.75h14.62v84.7h23.8V956.02z"/>
			<path class="st32" d="M891,956.02h-40.54v-97.75h40.16v12.93h-25.55v28.55h21.99v12.68h-21.99v30.67H891V956.02z"/>
		</g>
	</g>
</g>
</svg>
