<?xml version="1.0" encoding="utf-8"?>
<!-- Generator: Adobe Illustrator 23.0.5, SVG Export Plug-In . SVG Version: 6.00 Build 0)  -->
<svg version="1.1" id="Слой_1" xmlns="http://www.w3.org/2000/svg" xmlns:xmlnsXlink="http://www.w3.org/1999/xmlnsXlink" x="0px" y="0px"
	 viewBox="0 0 678 901" style="enable-background:new 0 0 678 901;" xml:space="preserve">
<style type="text/css">
	.st0{display:none;}
	.st1{fill:#DD9B26;}
	.st2{fill:#F4CA53;}
	.st3{fill:#C18421;}
	.st4{fill:#62A8DD;}
	.st5{fill:#659959;}
	.st6{fill:#B5331A;}
	.st7{fill:#992414;}
	.st8{fill:#DBA995;}
	.st9{fill:#F9BFAC;}
	.st10{fill:#774F44;}
	.st11{fill:#9E7263;}
	.st12{fill:#D1C699;}
	.st13{fill:#A59F84;}
	.st14{fill:#6073C6;}
	.st15{fill:#93A2D8;}
	.st16{fill:#B5C0E2;}
	.st17{fill:#4D6296;}
	.st18{fill:#7F5E36;}
	.st19{fill:#E1F9F9;stroke:#030505;stroke-width:0.6788;stroke-miterlimit:10;}
	.st20{fill:#F7D174;}
	.st21{fill:#E5A642;}
	.st22{fill:#BA8942;}
	.st23{fill:#A5793F;}
	.st24{fill:#E09E4F;}
	.st25{fill:#E8AA58;}
	.st26{fill:#F9C067;}
	.st27{fill:#F9E88A;}
	.st28{fill:#C1C1C1;}
	.st29{fill:#999595;}
	.st30{fill:#8096A0;}
	.st31{fill:#93AAB2;}
	.st32{fill:#C9E2E1;}
	.st33{fill:#E1F9F9;}
	.st34{fill:#F4F9F9;}
	.st35{fill:#EDA04C;}
	.st36{fill:#F4DA6C;}
	.st37{fill:#606060;}
	.st38{fill:#3A3A3A;}
	.st39{fill:#A5A5A5;}
	.st40{fill:#777674;}
	.st41{fill:#6E8E8B;}
	.st42{fill:#D18942;}
	.st43{fill:#A9D3D0;}
	.st44{fill:none;stroke:#FFFFFF;stroke-width:0.4022;stroke-miterlimit:10;}
	.st45{fill:#E56785;}
	.st46{fill:#7FE2EF;}
	.st47{fill:#C6AD93;}
	.st48{fill:#776851;}
	.st49{fill:#FFE888;}
	.st50{fill:#EDCC7A;}
	.st51{fill:#BBF5F9;}
	.st52{fill:#6BC0C6;}
</style>
<g>
	<g>
		<g>
			<g>
				<path class="st24" d="M504.88,301.54c0,9.64,87.86,28.85,86.64,38.16c-1.02,7.74-63.4,5.26-65.21,12.72
					c-2.45,10.1,56.47,36.37,52.66,45.86c-3.35,8.34-65.75-10.81-70.07-3.01c-5.89,10.62,45.31,53.16,37.79,62.59
					c-7.63,9.56-42.06-21.19-51.18-13.05c-5.57,4.98,7.83,51.31,1.76,55.69c-6.77,4.9-45.31-43.73-52.64-39.62
					c-8.08,4.52,9.7,69.03,1.03,72.5c-8.2,3.28-27.19-30.59-35.84-28.32c-9.67,2.54-11.4,35.5-21.54,36.69
					c-8.33,0.97-20.74-99.62-29.34-99.62c-8.99,0-20.54,105.46-29.25,104.4c-9.18-1.12-15.52-55.3-24.31-57.54
					c-10.6-2.7-30.33,45.59-40.25,41.39c-12.39-5.24,21.87-75.55,10.79-82.9c-10.88-7.22-75.53,44.7-84.91,35.68
					c-11.14-10.71,53.4-87.08,44.75-99.95c-7.84-11.66-86.49,32.37-91.97,19.25c-5.02-12.01,35.86-49.1,33.06-62.1
					c-3.19-14.79-50.99-13.42-50.99-29.17c0-9.83,45.7-25.62,46.97-35.1c2.09-15.65-41.06-33.78-35.81-48.19
					c5.23-14.34,61.3,2.01,69.29-10.73c7.96-12.69-28.21-65.21-17.88-75.95c9.76-10.14,71.93,43.88,83.49,35.78
					c12.86-9-13.89-76.94,0.8-83.01c12.51-5.17,40.54,52.3,54.1,49.53c14.05-2.86,18.68-63.28,33.58-63.28
					c14.95,0,25.97,30.94,40.07,33.82c12.34,2.52,37.33-23.6,48.8-19.08c12.57,4.96-1.18,48.12,10.11,55.23
					c10.26,6.46,45.45-20.03,54.45-11.99c8.93,7.98-39.19,70.94-31.69,80.28c7.46,9.28,74.84-29.75,80.71-19.3
					c4.4,7.83-42.61,37.69-39.2,46.08c4.46,10.96,59.88,3.72,62.51,15.49C589.55,276.07,504.88,285.24,504.88,301.54z"/>
			</g>
			<g>
				<path class="st25" d="M481.28,303.46c0,14.8,74.52,17.75,72.65,32c-1.59,12.14-51.81-1.19-54.69,10.67
					c-3.43,14.12,49.53,25.08,44.16,38.46c-5.1,12.69-52.14-14.46-58.76-2.53c-7.84,14.15,41.8,39.81,31.69,52.49
					c-8.29,10.39-33.23-19.59-42.91-10.94c-9.25,8.26,11.65,39.35,1.47,46.7c-9.95,7.19-33.34-39.27-44.14-33.23
					c-12.63,7.06,14.36,55.4,0.86,60.8c-10.15-7.75-20.17-15.66-30.06-23.74c-5.63,10.49-11.65,20.74-18.07,30.76
					c-12.44,1.45-11.73-83.54-24.6-83.54c-13.17,0-12.22,89.05-24.52,87.55c-13.77-1.68-7.24-44.9-20.39-48.25
					c-12.15-3.09-22.17,39.61-33.75,34.71c-15.88-6.72,23.34-60.04,9.05-69.52c-15.29-10.15-57.89,42.71-71.21,29.92
					c-15.74-15.13,49.57-65.9,37.52-83.81c-8.81-13.1-71.1,30.56-77.12,16.14c-6.79-16.24,30.85-35.24,27.72-52.07
					c-2.77-14.89-42.76-7.68-42.76-24.46c0-14.28,36.9-15.77,39.39-29.44c2.82-15.5-35.81-24.55-30.03-40.41
					c5.17-14.19,48.08-0.35,57.73-15.58c8.76-13.83-28.03-43.16-14.62-57.1c13.6-14.14,54.22,41.06,70.01,30.01
					c16.15-11.31-18.06-61.87,0.67-69.61c16.53-6.83,27.98,45.08,45.37,41.54c17.72-3.61,9.23-53.07,28.16-53.07
					c11.94,8.57,23.14,18.03,33.6,28.36c13.41-5.94,27.05-11.27,40.93-16c14.13,5.57-3.83,38.56,8.48,46.31
					c12.1,7.62,34.64-19.89,45.66-10.06c13.2,11.79-37.64,53.55-26.57,67.32c10.18,12.67,59.72-30.35,67.68-16.19
					c5.73,10.2-37.27,27.82-32.87,38.64c5.49,13.49,49.14-1.69,52.42,12.99C553.5,287.53,481.28,284.5,481.28,303.46z"/>
			</g>
			<g>
				<path class="st26" d="M446.12,306.31c0,11.35,53.25,11.84,51.81,22.82c-1.04,7.94-37.13-0.11-39,7.61
					c-2.22,9.14,34.98,18.73,31.49,27.43c-3.33,8.3-37.6-9.57-41.9-1.8c-5.08,9.16,29.18,29.18,22.6,37.43
					c-10.28-2.31-20.48-4.91-30.61-7.8c0.49,11.1,0.84,22.2,1.05,33.31c-6.45,4.66-24.51-27.6-31.48-23.7
					c-8.26,4.62,9.49,39.81,0.62,43.36c-7.24-5.53-14.39-11.17-21.44-16.93c-4.01,7.48-8.31,14.79-12.88,21.94
					c-9.13,1.07-7.97-59.58-17.55-59.58c-9.72,0-8.28,63.56-17.49,62.44c-5.07-11.38-9.91-22.85-14.54-34.41
					c-7.91,8.37-15.93,16.62-24.07,24.76c-10.14-4.29,15.51-43.57,6.45-49.58c-10.72-7.11-41.39,30.37-50.78,21.34
					c-11.54-11.09,35.66-46.54,26.76-59.77c-6.95-10.33-50.23,22.92-55,11.51c6.19-12.59,12.78-24.97,19.77-37.14
					c-10.52-5.19-20.69-11-30.49-17.44c9.18-7.25,18.54-14.24,28.09-20.99c-7.57-9.29-14.71-18.89-21.42-28.82
					c4.3-11.81,35.06,3.76,41.44-6.42c6.99-11.15-20.15-35.59-10.69-45.42c8.86-9.21,39.6,28.63,49.93,21.4
					c10.45-7.32-11.75-44.59,0.48-49.64c10.88-4.49,20.98,31.94,32.35,29.62c11.72-2.39,7.47-37.85,20.08-37.85
					c8.52,6.11,16.51,12.86,23.96,20.23c9.56-4.24,19.29-8.04,29.19-11.41c2.5,10.92,4.52,21.93,6.05,33.03
					c10.77-2.76,21.63-5.15,32.56-7.17c8.61,7.69-26.13,39.08-18.95,48.01c6.49,8.08,43.16-20.63,48.27-11.55
					c-7.73,9.26-15.54,18.45-23.44,27.56c3.91,9.62,35.05-1.2,37.38,9.26C497.64,295.03,446.12,292.51,446.12,306.31z"/>
			</g>
			<g>
				<g>

						<ellipse transform="matrix(0.7071 -0.7071 0.7071 0.7071 -115.0123 344.5369)" class="st27" cx="358.39" cy="311.1" rx="62.57" ry="62.57"/>
				</g>
			</g>
		</g>
		<g>
			<path class="st27" d="M300.75,788.55c0,5.65-2.8,8.47-8.41,8.47h-27.9c-5.57,0-8.35-2.82-8.35-8.47v-22.1h13.86v18.9h16.94
				v-18.19l-27.78-26.3c-2.01-1.94-3.02-4.4-3.02-7.4v-20.61c0-5.69,2.78-8.53,8.35-8.53h27.9c5.61,0,8.41,2.8,8.41,8.41v20.73
				h-13.86v-17.47h-16.94v16.76l27.78,26.18c2.01,1.9,3.02,4.4,3.02,7.52V788.55z"/>
			<path class="st27" d="M352.05,716.57h-15.28v80.44h-13.8v-80.44h-15.28v-12.26h44.37V716.57z"/>
			<path class="st27" d="M406.08,797.02h-13.74l-2.78-17.59h-17.36l-2.78,17.59h-13.68v-0.24l17.95-92.59h14.57L406.08,797.02z
				 M387.59,767.52l-6.75-41.82l-6.81,41.82H387.59z"/>
			<path class="st27" d="M461.29,797.02h-14.45l-15.28-43.07v-8.35h13.62v-29.38H427.7v80.8h-13.86v-92.71h36.79
				c5.57,0,8.35,2.84,8.35,8.53v33.71c0,3.91-1.32,6.44-3.97,7.58c-1.42,0.59-4.42,0.89-9,0.89L461.29,797.02z"/>
		</g>
	</g>
</g>
</svg>
