<?xml version="1.0" encoding="utf-8"?>
<!-- Generator: Adobe Illustrator 23.0.5, SVG Export Plug-In . SVG Version: 6.00 Build 0)  -->
<svg version="1.1" id="Слой_1" xmlns="http://www.w3.org/2000/svg" xmlns:xmlnsXlink="http://www.w3.org/1999/xmlnsXlink" x="0px" y="0px"
	 viewBox="180 180 1767 2278" style="enable-background:new 180 180 1767 2278;" xml:space="preserve">
<style type="text/css">
	.st0{display:none;}
	.st1{fill:#DD9B26;}
	.st2{fill:#F4CA53;}
	.st3{fill:#C18421;}
	.st4{fill:#62A8DD;}
	.st5{fill:#659959;}
	.st6{fill:#B5331A;}
	.st7{fill:#992414;}
	.st8{fill:#DBA995;}
	.st9{fill:#F9BFAC;}
	.st10{fill:#774F44;}
	.st11{fill:#9E7263;}
	.st12{fill:#D1C699;}
	.st13{fill:#A59F84;}
	.st14{fill:#6073C6;}
	.st15{fill:#93A2D8;}
	.st16{fill:#B5C0E2;}
	.st17{fill:#4D6296;}
	.st18{fill:#7F5E36;}
	.st19{fill:#E1F9F9;stroke:#030505;stroke-width:0.6788;stroke-miterlimit:10;}
	.st20{fill:#F7D174;}
	.st21{fill:#E5A642;}
	.st22{fill:#BA8942;}
	.st23{fill:#A5793F;}
	.st24{fill:#E09E4F;}
	.st25{fill:#E8AA58;}
	.st26{fill:#F9C067;}
	.st27{fill:#F9E88A;}
	.st28{fill:#C1C1C1;}
	.st29{fill:#999595;}
	.st30{fill:#8096A0;}
	.st31{fill:#93AAB2;}
	.st32{fill:#C9E2E1;}
	.st33{fill:#E1F9F9;}
	.st34{fill:#F4F9F9;}
	.st35{fill:#EDA04C;}
	.st36{fill:#F4DA6C;}
	.st37{fill:#606060;}
	.st38{fill:#3A3A3A;}
	.st39{fill:#A5A5A5;}
	.st40{fill:#777674;}
	.st41{fill:#6E8E8B;}
	.st42{fill:#D18942;}
	.st43{fill:#A9D3D0;}
	.st44{fill:none;stroke:#FFFFFF;stroke-width:0.4022;stroke-miterlimit:10;}
	.st45{fill:#E56785;}
	.st46{fill:#7FE2EF;}
	.st47{fill:#C6AD93;}
	.st48{fill:#776851;}
	.st49{fill:#FFE888;}
	.st50{fill:#EDCC7A;}
	.st51{fill:#BBF5F9;}
	.st52{fill:#6BC0C6;}
</style>
<g>
	<g>
		<g>
			<g>
				<path class="st49" d="M1610.71,945.09c0,52.79,54.13,52.48,35.31,108.57c-10.59,31.56-50.19,33.82-53.8,75.02
					c-3.3,37.66,41.23,59.15,18.63,99.12c-23.18,40.99-72.01,21.81-91.76,73.39c-12.39,32.35,20.79,76.9-4.34,108.54
					c-24.86,31.31-72.45,16.48-103.21,33.67c-52.23,29.18-14.76,49.81-44.1,84.08c-34.27,40.02-68.77-6.87-108.47,16.95
					c-33.1,19.85-26.4,92.49-64.29,104.58c-31.51,10.05-50.27-36.14-77.52-37.71c-47.27-2.72-51.68,50.09-92.93,58.79
					c-46.7,9.86-69.41-42.2-118.15-32.26c-27.93,5.7-45.72,58.1-78.82,52.85c-34.93-5.54-35.43-62.49-64.67-75.09
					c-44.79-19.3-75.8,32.19-117.29,25.19c-54.35-9.18-44.05-45.57-72.87-85.11c-54.24-74.42-150.76-15.78-197.37-86.72
					c-22.75-34.62,3.21-91.91-15.67-129.48c-25.1-49.97-100.38-53.61-121.13-105.22c-15.6-38.81,15.6-78.47,15.71-116.62
					c0.17-55.65-42.26-78.45-58-128c-22.81-71.83,9.95-58.38,36.85-113.7c25.01-51.42-9.69-88.57-14.81-140.82
					c-10.4-106.22,95.8-92.8,132.87-174.49C397.69,457.44,327.55,406.76,468,392.58c102.66-10.36,102.69-116.86,191.53-137.52
					c42.45-9.87,83.55,23.91,127.18,17.63c50.12-7.21,85-59.23,137.77-59.29c52.74-0.06,88.22,52.01,138.3,59.4
					c51.8,7.64,105.26-33.33,153.55-5.34c40.46,23.45,44.3,77.92,87.69,101.68c65.76,36.02,90.82-0.56,129.22,72.05
					c26.08,49.31,24.73,67.77,68.67,103.83c49.58,40.68,50.14,31.05,62.37,92.74c3.03,15.28-9.17,31.88-3.94,48.81
					c10.1,32.67,50.14,44.45,65.47,72.52C1661.85,825.04,1610.71,876.73,1610.71,945.09z"/>
			</g>
			<g>
				<g>
					<circle class="st2" cx="924.48" cy="945.09" r="618.05"/>
				</g>
			</g>
			<g>
				<path class="st50" d="M1486.69,945.72c0,29.11-38.78,43.92-47.11,67.97c-13.87,40.06,7.53,52.12,7.78,91.98
					c0.5,80.08-72.01,67.19-98,136.15c-11.02,29.23,4.86,65.19-18.06,91.96c-26.23,30.64-70.74,20.71-104.92,30.31
					c-74.37,20.88-83.77,87.23-145.97,117.25c-62.91,30.36-115.38-30.57-180.35-28.59c-78.84,2.4-131.44,57.85-199.15-6.95
					c-53.9-51.58-55.43-79.32-131.79-102.01c-92.93-27.61-44.91-48.09-77.3-120.22c-26.13-58.18-89.97-37.04-88.38-107.98
					c0.59-26.09,29.7-48.36,26.51-75.77c-4.11-35.34-29.74-32.93-45.23-59.61c-42.99-74.04,25.89-60.6,44.74-125.78
					c20.05-69.31-61.97-91.63,10.21-144.71c24.15-17.76,55.86-7.58,67.8-39.79c8.1-21.84-16.5-44.52-11.31-65.01
					c16.13-63.72,80.64-28.74,123.04-71.33c52.64-52.88,17.45-91.94,110.12-90.39c27.96,0.47,57.83,11.59,85.75,5.92
					c39.33-7.99,58.88-39.65,94.63-53.69c80.08-31.45,120.79,34.38,192.03,56.39c93.96,29.04,131.81,12.26,184.34,101.65
					c35.87,61.04,114.72,75.74,134.72,141.71c13.07,43.12-1.25,86.27,17.24,130.75C1455.21,867.25,1486.69,897.74,1486.69,945.72z"
					/>
			</g>
			<g>
				<path class="st49" d="M1366.76,944.21c0,28.68-40.53,42.39-45.26,69.8c-5.26,30.46,29.69,58.29,15.98,88.78
					c-12.39,27.56-47.93,22.53-63.55,44.68c-18.05,25.6-5.18,57.96-19.68,81.7c-32.5,53.22-115.92,52.14-166.8,92.53
					c-21.27,16.88-28.41,45.89-59.23,52.55c-32.52,7.03-52.43-22.21-80.82-26.74c-88.49-14.13-142.97,48.01-210.84-27.58
					c-30.79-34.3-35.98-43.4-77.53-60.71c-34.88-14.53-50.84-0.99-71.06-38.5c-11.18-20.75,4.27-52.4-9.24-74.18
					c-23.36-37.66-56.49-13.05-66.26-63.63c-4.4-22.78,29.99-47.25,23.73-73.8c-6.29-26.69-46.23-30.26-50.1-55.92
					c-5.74-38.1,32.8-38.49,41.97-69.06c12.87-42.9-12.84-37.3-11.02-77.98c2.67-59.63,25.14-18.31,48.64-55.01
					c11.46-2.47,21.27-8.1,29.41-16.88c3.94-13.85,2.77-27.37-3.51-40.57c11.29-28.91-9.53-26.13,16.66-49.08
					c22.37-19.6,56.64-7.36,82.43-33.6c15.87-16.15,6.99-44.5,30.42-59.64c24.65-15.93,64.3,3.65,90.72,1.77
					c64.65-4.59,98.26-58.47,165.32-45.57c35.24,6.78,67.74,42.45,105.78,52.16c31.16,7.95,68.36,0.78,95.56,22.37
					c23.32,18.51,19.75,48.49,36.6,68.72c25.25,30.31,72.96,41.22,93.12,73.32c17.32,27.58,1.93,71.65,10.02,101.73
					C1329.59,868.13,1366.76,897.79,1366.76,944.21z"/>
			</g>
		</g>
	</g>
</g>
</svg>
