<?xml version="1.0" encoding="utf-8"?>
<!-- Generator: Adobe Illustrator 23.0.5, SVG Export Plug-In . SVG Version: 6.00 Build 0)  -->
<svg version="1.1" id="Слой_1" xmlns="http://www.w3.org/2000/svg" xmlns:xmlnsXlink="http://www.w3.org/1999/xmlnsXlink" x="0px" y="0px"
	 viewBox="0 0 1035 1108" style="enable-background:new 0 0 1035 1108;" xml:space="preserve">
<style type="text/css">
	.st0{display:none;}
	.st1{fill:#DD9B26;}
	.st2{fill:#F4CA53;}
	.st3{fill:#C18421;}
	.st4{fill:#62A8DD;}
	.st5{fill:#659959;}
	.st6{fill:#B5331A;}
	.st7{fill:#992414;}
	.st8{fill:#DBA995;}
	.st9{fill:#F9BFAC;}
	.st10{fill:#774F44;}
	.st11{fill:#9E7263;}
	.st12{fill:#D1C699;}
	.st13{fill:#A59F84;}
	.st14{fill:#6073C6;}
	.st15{fill:#93A2D8;}
	.st16{fill:#B5C0E2;}
	.st17{fill:#4D6296;}
	.st18{fill:#7F5E36;}
	.st19{fill:#E1F9F9;stroke:#030505;stroke-width:0.6788;stroke-miterlimit:10;}
	.st20{fill:#F7D174;}
	.st21{fill:#E5A642;}
	.st22{fill:#BA8942;}
	.st23{fill:#A5793F;}
	.st24{fill:#E09E4F;}
	.st25{fill:#E8AA58;}
	.st26{fill:#F9C067;}
	.st27{fill:#F9E88A;}
	.st28{fill:#C1C1C1;}
	.st29{fill:#999595;}
	.st30{fill:#8096A0;}
	.st31{fill:#93AAB2;}
	.st32{fill:#C9E2E1;}
	.st33{fill:#E1F9F9;}
	.st34{fill:#F4F9F9;}
	.st35{fill:#EDA04C;}
	.st36{fill:#F4DA6C;}
	.st37{fill:#606060;}
	.st38{fill:#3A3A3A;}
	.st39{fill:#A5A5A5;}
	.st40{fill:#777674;}
	.st41{fill:#6E8E8B;}
	.st42{fill:#D18942;}
	.st43{fill:#A9D3D0;}
	.st44{fill:none;stroke:#FFFFFF;stroke-width:0.4022;stroke-miterlimit:10;}
	.st45{fill:#E56785;}
	.st46{fill:#7FE2EF;}
	.st47{fill:#C6AD93;}
	.st48{fill:#776851;}
	.st49{fill:#FFE888;}
	.st50{fill:#EDCC7A;}
	.st51{fill:#BBF5F9;}
	.st52{fill:#6BC0C6;}
</style>
<g>
	<g>
		<g>
			<g>
				<path class="st46" d="M752.78,392.59c4.54,24.48,5.38,48.8,2.9,72.36c-0.54,5.18-1.24,10.32-2.1,15.41l-0.54,3.07
					c-1.27,7.03-2.84,13.99-4.7,20.84c-3.78,13.99-8.75,27.56-14.81,40.59c-3.15,6.75-6.58,13.36-10.31,19.79
					c-6.5,11.28-13.88,22.04-22.05,32.18c-7.84,9.75-16.41,18.92-25.64,27.43c-33.76,31.12-76.42,53.41-124.9,62.39
					c-34.35,6.37-68.37,5.45-100.45-1.66c-0.01,0-0.01,0-0.01,0c-18.61-4.12-36.58-10.33-53.59-18.41
					c-22.04-10.47-42.47-24.07-60.61-40.36c-4.76-4.27-9.36-8.72-13.79-13.36c-8.87-9.26-17.05-19.23-24.46-29.82
					c-4.23-6.05-8.21-12.31-11.91-18.76c-3.86-6.73-7.43-13.66-10.69-20.79c-2.41-5.27-4.64-10.65-6.69-16.13
					c-5.12-13.67-9.13-27.98-11.88-42.83c-0.31-1.67-0.6-3.34-0.87-5.01c-1.73-10.43-2.78-20.82-3.19-31.13
					c-0.24-5.77-0.27-11.51-0.11-17.22c0.22-7.77,0.8-15.47,1.72-23.09c1.93-15.87,5.35-31.39,10.16-46.37
					c4.63-14.46,10.55-28.42,17.64-41.72l0-0.01c2.11-3.96,4.33-7.86,6.64-11.7c6.08-10.09,12.86-19.73,20.29-28.87
					c0.97-1.2,1.95-2.39,2.95-3.57c6.26-7.43,12.96-14.52,20.06-21.19c34.06-32.07,77.42-55.05,126.83-64.2
					c53.57-9.93,106.33-2.14,152.23,19.22c6.16,2.87,12.2,5.98,18.1,9.33c3.55,2.01,7.04,4.1,10.49,6.28
					c8.04,5.09,15.78,10.62,23.2,16.57c3.79,3.04,7.5,6.19,11.11,9.45c9.05,8.16,17.52,16.99,25.33,26.42
					c4.51,5.44,8.79,11.08,12.85,16.91c6.14,8.83,11.73,18.09,16.73,27.76c6.55,12.63,12.08,25.94,16.47,39.85
					c3.04,9.61,5.53,19.51,7.44,29.66C752.7,392.13,752.74,392.36,752.78,392.59z"/>
				<g>
					<path class="st51" d="M629.03,219c-1.41,0.39-2.84,0.79-4.33,1.18c-25.51,6.78-68.04,15.16-125.84,16.6
						c-74.65,1.85-144.98,23.95-187.04,39.08c6.26-7.43,12.96-14.52,20.06-21.19c43.1-14.1,103.2-29.82,166.64-31.4
						c48.15-1.19,85.62-7.24,112.41-13.59C617.09,212.54,623.12,215.65,629.03,219z"/>
				</g>
				<g>
					<path class="st52" d="M662.72,241.86c-17.24,4.65-47.53,12.58-80.41,20.06c-19.02,4.33-36.37,7.95-52.03,10.85
						c-40.87,7.57-70.18,10.27-87.48,8.03c-41.73-5.41-124.01,18.19-154.22,27.5c6.08-10.09,12.86-19.73,20.29-28.87
						c39.61-11.01,100.27-25.14,136.76-20.42c14.67,1.9,49.46,0.23,131.81-18.51c23.29-5.31,45.25-10.82,62.09-15.22
						C647.56,230.37,655.3,235.9,662.72,241.86z"/>
				</g>
				<g>
					<path class="st51" d="M699.16,277.73c-20.73,2.58-45.43,7.3-71.84,13.91c-52.84,13.23-101.62,31.15-118.61,43.57
						c-9.57,6.99-20.28,11.57-32.46,13.82c-5.14,0.95-10.54,1.49-16.23,1.62c-16.07,0.38-33.09-2.39-51.11-5.31
						c-20.88-3.39-42.48-6.9-66.82-6.62c-33.74,0.38-60.42,12.21-77.81,23c4.63-14.46,10.55-28.42,17.64-41.72l0-0.01
						c16.94-6.28,37.02-10.86,59.82-11.12c26.92-0.31,50.84,3.58,71.95,7.01c33.66,5.47,57.98,9.42,77.39-4.77
						c24.78-18.11,84.97-37.4,128.98-48.42c12.42-3.11,32.26-7.73,53.75-11.37C682.88,259.47,691.35,268.3,699.16,277.73z"/>
				</g>
				<g>
					<path class="st51" d="M728.74,322.4c-21.44-6.63-49-11.31-69.36,1.09c-28.96,17.64-79.74,42.99-123.19,51.05
						c-15.01,2.78-29.14,3.5-41.2,1.12c-3.17-0.62-10.47-0.36-27.27,4.41c-13.78,3.92-30.77,9.93-48.76,16.3
						c-26.38,9.35-55.17,19.54-83.29,26.72l-0.01,0c-8.25,2.11-16.43,3.96-24.48,5.45c-0.69,0.13-1.37,0.25-2.06,0.37l-0.03,0.01
						c-20.23,3.61-39.55,4.88-56.69,2.27c0.22-7.77,0.8-15.47,1.72-23.09c41.84,7.32,107.01-15.75,157.12-33.5
						c45.17-15.99,71.53-24.88,88.21-21.59c33.28,6.56,99.59-19.8,147.9-49.24c17.14-10.44,38.89-13.51,64.65-9.13
						C718.15,303.47,723.74,312.73,728.74,322.4z"/>
				</g>
				<g>
					<path class="st52" d="M752.65,391.91c-3.65,0.04-7.59,0.18-11.82,0.46c-22.65,1.46-58.92,7.17-103.09,26.05
						c-27.02,11.54-55.53,19.37-83.69,24.59c-73.8,13.68-145.22,9.43-181.44,7.28c-39.59-2.35-93.54,19.01-116.9,29.26
						c-1.73-10.43-2.78-20.82-3.19-31.13c14.44-6.02,34.71-13.68,56.58-19.49l0.03-0.01c8.69-2.31,17.62-4.32,26.54-5.82l0.01,0
						c13.22-2.23,26.41-3.34,38.69-2.6c47.96,2.84,160.25,9.51,251.63-29.53c50.9-21.74,92.71-27.65,119.21-28.71
						C748.25,371.85,750.75,381.75,752.65,391.91z"/>
				</g>
				<g>
					<path class="st51" d="M755.69,464.95c-0.54,5.18-1.24,10.32-2.1,15.41l-0.54,3.07c-10.27,2.24-22.25,4.7-35.36,7.13
						c-11.06,2.05-22.9,4.07-35.19,5.91c-31.41,4.69-59.53,7.34-84.26,7.94c-37.16,0.9-66.65-2.83-88.12-11.19
						c-31.83-12.4-86.99-5.55-159.52,19.8c-29.6,10.35-56.59,21.89-75.47,30.48c-2.41-5.27-4.64-10.65-6.69-16.13
						c19.21-8.73,46.4-20.34,76.21-30.76c77.7-27.18,135.5-33.79,171.8-19.66C576.67,500.39,699.53,477.47,755.69,464.95z"/>
				</g>
				<g>
					<path class="st51" d="M753.59,480.37l-0.54,3.07c-1.27,7.03-2.84,13.99-4.7,20.84c-25.53,5.9-67.72,13.16-137.39,20.82
						c-83.75,9.21-125.56,16.93-156.08,22.57c-24.35,4.5-41.95,7.75-67.28,9.01c-29.4,1.47-64.7,14.93-89.86,26.37
						c-4.23-6.05-8.21-12.31-11.91-18.76c26.97-12.46,66.57-27.85,100.68-29.56c23.87-1.19,39.99-4.17,64.39-8.67
						c29.58-5.46,69.62-12.86,147.35-21.66c3.37-0.38,6.81-0.76,10.32-1.15C690.76,494.22,732.73,485.86,753.59,480.37z"/>
				</g>
				<g>
					<path class="st51" d="M733.54,544.87c-3.15,6.75-6.58,13.36-10.31,19.79c-62.61,11.75-165.07,28.6-228.29,26.43
						c-52.59-1.8-115.3,18.04-158.95,35.14c-4.76-4.27-9.36-8.72-13.79-13.36c8.07-3.26,16.92-6.68,26.37-10.08
						c57.43-20.71,106.88-30.52,146.96-29.15C561.08,575.88,673.75,556.37,733.54,544.87z"/>
				</g>
				<g>
					<path class="st52" d="M701.19,596.85c-7.84,9.75-16.41,18.92-25.64,27.43c-25.25-1.31-58.79,1.1-93.88,15.38
						c-45.94,18.69-92.48,34.74-131.47,45.35c-0.01,0-0.01,0-0.01,0c-18.61-4.12-36.58-10.33-53.59-18.41
						c11.13-1.87,25.19-4.88,42.89-9.61c38.43-10.29,84.92-26.26,130.92-44.98c48.35-19.66,93.93-19.61,123.66-16.1
						C696.51,596.19,698.88,596.51,701.19,596.85z"/>
				</g>
			</g>
			<path class="st33" d="M952.83,343.8c-0.11-0.4-0.19-0.82-0.34-1.21l-0.43-1.16l-0.44-1.17c-0.15-0.38-0.3-0.78-0.49-1.13
				c-0.36-0.73-0.73-1.46-1.1-2.19c-1.58-2.79-3.44-5.36-5.51-7.5c-4.11-4.39-8.71-7.64-13.36-10.33
				c-4.67-2.69-9.44-4.78-14.23-6.59c-4.79-1.8-9.6-3.33-14.44-4.64c-4.83-1.29-9.67-2.45-14.51-3.39c-1.21-0.26-2.42-0.48-3.64-0.7
				l-3.63-0.66c-2.42-0.39-4.84-0.83-7.27-1.16c-9.7-1.45-19.39-2.49-29.08-3.27c-19.38-1.54-38.73-1.97-58.03-1.84
				c-19.3,0.15-38.56,0.89-57.78,2.1c-4.26,0.26-8.51,0.55-12.76,0.85c2.02,3.09,3.98,6.23,5.87,9.42c2.45-0.08,4.89-0.15,7.34-0.22
				c19.08-0.51,38.16-0.54,57.2,0.01c19.02,0.56,38.01,1.74,56.79,3.88c9.39,1.07,18.72,2.41,27.94,4.1
				c9.22,1.67,18.3,3.8,27.08,6.43c4.39,1.33,8.67,2.84,12.8,4.54c4.12,1.69,8.09,3.61,11.68,5.8c3.59,2.18,6.79,4.68,9.16,7.38
				c1.23,1.33,2.12,2.73,2.88,4.11c0.16,0.35,0.32,0.7,0.49,1.04c0.1,0.16,0.15,0.34,0.21,0.52l0.17,0.52l0.19,0.52
				c0.07,0.17,0.08,0.35,0.13,0.53c0.07,0.35,0.15,0.7,0.24,1.06c0.03,0.36,0.06,0.72,0.1,1.08c0.02,0.18,0.07,0.35,0.05,0.54
				l-0.01,0.55l0,0.55c0.01,0.18,0.02,0.36-0.02,0.55c-0.05,0.38-0.09,0.76-0.13,1.13c-0.27,1.53-0.65,3.12-1.38,4.76
				c-1.35,3.27-3.51,6.64-6.14,9.84c-2.63,3.22-5.73,6.29-9.03,9.22c-3.32,2.93-6.83,5.73-10.5,8.41
				c-3.69,2.66-7.46,5.25-11.38,7.69c-0.96,0.62-1.95,1.23-2.94,1.82l-2.97,1.8c-2.01,1.16-3.99,2.35-6.03,3.48
				c-8.1,4.56-16.43,8.84-24.9,12.88c-16.95,8.08-34.44,15.24-52.14,21.89c-17.16,6.43-34.54,12.36-52.07,17.87
				c-0.57,0.18-1.13,0.35-1.7,0.53c-33.35,10.48-67.14,19.69-101.15,28.06l-0.01,0c-2.9,0.72-5.81,1.43-8.72,2.13
				c-28.06,6.79-56.26,13-84.58,18.7l-0.01,0c-8.98,1.81-17.97,3.57-26.98,5.27c-18.69,3.54-37.43,6.86-56.22,9.86
				c-9.39,1.49-18.79,2.96-28.2,4.34c-9.41,1.37-18.83,2.7-28.26,3.91c-37.71,4.93-75.56,8.74-113.45,10.92
				c-7.3,0.41-14.59,0.77-21.88,1.05c-4.06,0.16-8.11,0.29-12.17,0.4c-7.59,0.21-15.18,0.33-22.76,0.36
				c-18.91,0.04-37.8-0.42-56.51-1.94c-9.35-0.76-18.65-1.76-27.84-3.12c-2.3-0.32-4.58-0.73-6.87-1.09l-3.41-0.62
				c-1.14-0.2-2.28-0.41-3.4-0.65c-4.53-0.87-8.97-1.94-13.37-3.08c-4.39-1.17-8.67-2.52-12.81-4.05
				c-4.13-1.54-8.12-3.28-11.73-5.33c-3.61-2.03-6.84-4.38-9.27-6.93c-1.27-1.26-2.2-2.6-3.01-3.93c-0.17-0.33-0.35-0.67-0.53-1
				c-0.11-0.16-0.17-0.34-0.23-0.51l-0.2-0.51l-0.21-0.5c-0.08-0.17-0.09-0.35-0.15-0.52c-0.09-0.35-0.19-0.69-0.3-1.04
				c-0.04-0.36-0.1-0.71-0.16-1.07c-0.02-0.18-0.08-0.35-0.08-0.54l-0.02-0.55l-0.03-0.56c-0.01-0.19-0.03-0.37,0-0.56
				c0.03-0.38,0.06-0.77,0.08-1.15c0.2-1.55,0.52-3.2,1.19-4.88c1.23-3.38,3.3-6.88,5.86-10.22c2.56-3.36,5.58-6.57,8.82-9.65
				c3.25-3.07,6.71-6.03,10.32-8.85c3.64-2.81,7.35-5.56,11.21-8.15c0.95-0.67,1.92-1.31,2.9-1.95l2.92-1.92
				c1.99-1.23,3.94-2.52,5.96-3.72c8-4.89,16.24-9.48,24.63-13.83c16.79-8.7,34.12-16.56,51.71-23.81
				c9.57-3.95,19.22-7.74,28.93-11.39c0.62-4.25,1.35-8.48,2.19-12.66c-11.93,4.03-23.81,8.27-35.6,12.75
				c-18.03,6.88-35.92,14.26-53.44,22.67c-8.76,4.21-17.43,8.65-25.96,13.47c-2.14,1.19-4.24,2.46-6.36,3.69l-3.16,1.92
				c-1.05,0.64-2.1,1.28-3.14,1.96c-4.18,2.61-8.28,5.42-12.33,8.34c-4.04,2.94-7.99,6.09-11.82,9.47
				c-3.82,3.4-7.53,7.05-10.94,11.21c-3.39,4.16-6.54,8.83-8.81,14.38c-1.17,2.74-1.99,5.79-2.48,8.97
				c-0.09,0.81-0.18,1.62-0.25,2.43c-0.05,0.4-0.05,0.82-0.05,1.23l0,1.24l0.01,1.25c0,0.41,0.07,0.83,0.11,1.25
				c0.09,0.83,0.19,1.67,0.3,2.49c0.18,0.81,0.36,1.63,0.56,2.45c0.1,0.4,0.18,0.83,0.32,1.21l0.41,1.18l0.42,1.18
				c0.14,0.39,0.28,0.79,0.47,1.15c0.34,0.74,0.7,1.48,1.06,2.22c1.53,2.85,3.35,5.48,5.38,7.7c4.04,4.52,8.61,7.94,13.25,10.77
				c4.64,2.83,9.4,5.09,14.18,7.07c4.79,1.96,9.6,3.65,14.43,5.12c4.83,1.44,9.67,2.77,14.52,3.88c1.21,0.3,2.42,0.56,3.64,0.83
				l3.64,0.79c2.43,0.47,4.86,0.99,7.28,1.41c9.72,1.78,19.45,3.16,29.18,4.25c19.45,2.17,38.91,3.31,58.33,3.79
				c11.68,0.28,23.35,0.36,35.01,0.23c0.96-0.01,1.89-0.02,2.84-0.03l0.01,0c6.78-0.09,13.55-0.25,20.3-0.48
				c9.68-0.31,19.35-0.72,29.01-1.26c9.31-0.51,18.6-1.12,27.89-1.83l0.01,0c0.35-0.02,0.7-0.06,1.05-0.08
				c9.64-0.74,19.27-1.56,28.89-2.48c4.81-0.44,9.61-0.95,14.42-1.44c4.8-0.53,9.6-1.03,14.4-1.6c19.19-2.2,38.35-4.7,57.45-7.55
				c19.1-2.85,38.15-6.02,57.16-9.42c15.44-2.81,30.85-5.83,46.22-9.06l0.03-0.01c22.42-4.72,44.74-9.92,66.95-15.64
				c30.87-7.95,61.5-16.88,91.79-26.99c0.01,0,0.01,0,0.01,0c0.01,0,0.01,0,0.01,0c3.19-1.06,6.38-2.15,9.56-3.24
				c3.23-1.1,6.46-2.23,9.69-3.36c18.27-6.46,36.39-13.37,54.32-20.85c17.93-7.49,35.65-15.57,53.02-24.59
				c8.68-4.52,17.27-9.29,25.7-14.43c8.43-5.12,16.68-10.7,24.67-16.84c3.99-3.09,7.88-6.39,11.65-9.92
				c3.76-3.54,7.39-7.34,10.73-11.63c3.32-4.29,6.37-9.1,8.54-14.76c1.11-2.79,1.88-5.89,2.29-9.09c0.08-0.82,0.14-1.63,0.2-2.45
				c0.05-0.4,0.04-0.82,0.03-1.24l-0.03-1.25l-0.04-1.25c-0.01-0.42-0.09-0.83-0.13-1.25c-0.11-0.83-0.23-1.66-0.35-2.49
				C953.24,345.43,953.04,344.61,952.83,343.8z"/>
		</g>
		<g>
			<g>
				<path class="st51" d="M384.66,1011.73c0,6.6-3.32,9.9-9.97,9.9h-34.4c-6.55,0-9.83-3.3-9.83-9.9v-98.43h16.2v94.42h21.8v-94.42
					h16.2V1011.73z"/>
				<path class="st51" d="M453.12,1021.62h-16.89l-17.86-50.32v-9.76h15.92v-34.33h-20.42v94.42h-16.2V913.29h42.99
					c6.51,0,9.76,3.32,9.76,9.97v39.39c0,4.57-1.55,7.52-4.64,8.86c-1.66,0.69-5.17,1.04-10.52,1.04L453.12,1021.62z"/>
				<path class="st51" d="M573.92,1021.62h-14.19l-25.96-68.18c0.69,3.32,1.04,5.93,1.04,7.82v60.36h-15.78V913.29h14.19l25.96,66.8
					c-0.69-3.32-1.04-5.93-1.04-7.82v-58.98h15.78V1021.62z"/>
				<path class="st51" d="M641.13,1011.73c0,6.6-3.32,9.9-9.97,9.9h-34.4c-6.55,0-9.83-3.3-9.83-9.9v-98.43h16.2v94.42h21.8v-94.42
					h16.2V1011.73z"/>
				<path class="st51" d="M706.06,1011.73c0,6.6-3.28,9.9-9.83,9.9h-32.6c-6.51,0-9.76-3.3-9.76-9.9v-25.82h16.2v22.08h19.8v-21.25
					L657.4,956c-2.35-2.26-3.53-5.15-3.53-8.65v-24.09c0-6.65,3.25-9.97,9.76-9.97h32.6c6.55,0,9.83,3.28,9.83,9.83v24.23h-16.2
					v-20.42h-19.8v19.59l32.47,30.6c2.35,2.22,3.53,5.15,3.53,8.79V1011.73z"/>
			</g>
			<g>
				<path class="st51" d="M512.95,1021.62h-16.26l-3.29-20.53h-20.53l-3.29,20.53h-16.19v-0.28l21.23-108.06h17.24L512.95,1021.62z
					 M491.08,987.2l-7.99-48.81l-8.06,48.81H491.08z"/>
			</g>
		</g>
	</g>
</g>
</svg>
