<?xml version="1.0" encoding="utf-8"?>
<!-- Generator: Adobe Illustrator 23.0.5, SVG Export Plug-In . SVG Version: 6.00 Build 0)  -->
<svg version="1.1" id="Слой_1" xmlns="http://www.w3.org/2000/svg" xmlns:xmlnsXlink="http://www.w3.org/1999/xmlnsXlink" x="0px" y="0px"
	 viewBox="0 0 676 940" style="enable-background:new 0 0 676 940;" xml:space="preserve">
<style type="text/css">
	.st0{display:none;}
	.st1{fill:#DD9B26;}
	.st2{fill:#F4CA53;}
	.st3{fill:#C18421;}
	.st4{fill:#62A8DD;}
	.st5{fill:#659959;}
	.st6{fill:#B5331A;}
	.st7{fill:#992414;}
	.st8{fill:#DBA995;}
	.st9{fill:#F9BFAC;}
	.st10{fill:#774F44;}
	.st11{fill:#9E7263;}
	.st12{fill:#D1C699;}
	.st13{fill:#A59F84;}
	.st14{fill:#6073C6;}
	.st15{fill:#93A2D8;}
	.st16{fill:#B5C0E2;}
	.st17{fill:#4D6296;}
	.st18{fill:#7F5E36;}
	.st19{fill:#E1F9F9;stroke:#030505;stroke-width:0.6788;stroke-miterlimit:10;}
	.st20{fill:#F7D174;}
	.st21{fill:#E5A642;}
	.st22{fill:#BA8942;}
	.st23{fill:#A5793F;}
	.st24{fill:#E09E4F;}
	.st25{fill:#E8AA58;}
	.st26{fill:#F9C067;}
	.st27{fill:#F9E88A;}
	.st28{fill:#C1C1C1;}
	.st29{fill:#999595;}
	.st30{fill:#8096A0;}
	.st31{fill:#93AAB2;}
	.st32{fill:#C9E2E1;}
	.st33{fill:#E1F9F9;}
	.st34{fill:#F4F9F9;}
	.st35{fill:#EDA04C;}
	.st36{fill:#F4DA6C;}
	.st37{fill:#606060;}
	.st38{fill:#3A3A3A;}
	.st39{fill:#A5A5A5;}
	.st40{fill:#777674;}
	.st41{fill:#6E8E8B;}
	.st42{fill:#D18942;}
	.st43{fill:#A9D3D0;}
	.st44{fill:none;stroke:#FFFFFF;stroke-width:0.4022;stroke-miterlimit:10;}
	.st45{fill:#E56785;}
	.st46{fill:#7FE2EF;}
	.st47{fill:#C6AD93;}
	.st48{fill:#776851;}
	.st49{fill:#FFE888;}
	.st50{fill:#EDCC7A;}
	.st51{fill:#BBF5F9;}
	.st52{fill:#6BC0C6;}
</style>
<g>
	<g>
		<g>
			<path class="st1" d="M144.61,328.6c0,50,19,95.57,50.16,129.87c11.23,12.36,24.04,23.26,38.11,32.37
				c30.21,19.58,66.24,30.95,104.92,30.95c44.37,0,85.24-14.96,117.85-40.1c43.46-33.5,72.25-85.1,75.11-143.51
				c0.16-3.18,0.24-6.38,0.24-9.59c0-20.98-3.34-41.19-9.54-60.11c-6.06-18.53-14.85-35.84-25.89-51.43
				c-24.05-33.96-58.79-59.81-99.32-72.65c0,0,0,0-0.01,0c-18.43-5.85-38.06-9-58.43-9c-19.32,0-37.98,2.84-55.59,8.12
				C202.62,167.4,144.61,241.22,144.61,328.6z"/>
			<g>
				<g>
					<path class="st2" d="M144.61,328.6c0,50,19,95.57,50.16,129.87c11.73-9.35,17.69-20.4,7.87-32.13
						c-27.49-32.84,155.78-38.18,174.87-81.71c19.09-43.53-149.67,40.47-180.98-16.04c-31.31-56.51-52.03-48.64,153.4-111.05
						c40.38-12.27-136.95-12.14-67.73-74.02C202.62,167.4,144.61,241.22,144.61,328.6z"/>
				</g>
			</g>
			<g>
				<path class="st3" d="M266.04,168.48c0.47-6.97,5.25-15.19,16.17-24.96c-7.69,2.31-15.18,5.09-22.44,8.29
					C258.63,158.35,261.17,163.83,266.04,168.48z"/>
				<path class="st3" d="M177.11,291.83c-4.32-21.25,28.24-30.36,172.83-74.29c14.05-4.27,1.74-7.04-17.36-11.44
					C169.18,255.72,158.13,258.83,177.11,291.83z"/>
				<path class="st3" d="M201.07,424.1c-0.22,7.06-5.34,13.69-12.8,19.64c-12.1-13.32-22.37-28.34-30.4-44.66
					c8.65,22.07,21.24,42.15,36.9,59.39c11.73-9.35,17.69-20.4,7.87-32.13C202.01,425.58,201.49,424.83,201.07,424.1z"/>
				<path class="st3" d="M370.07,331.77c-23.45,41.81-201.01,47.47-173.92,79.83c1.84,2.2,3.13,4.38,3.93,6.52
					c6.62-25.89,160.06-33.87,177.44-73.49C381.17,336.29,377.93,332.63,370.07,331.77z"/>
			</g>
			<g>
				<g>
					<path class="st2" d="M313.37,169.77c29.02,25.96,124.3,46.33,112.85,67.72c-8.77,16.36,52.87,13.87,69.35-20.43
						c-24.05-33.96-58.79-59.81-99.32-72.65c0,0,0,0-0.01,0C352.78,146.73,294.61,152.98,313.37,169.77z"/>
				</g>
			</g>
			<path class="st3" d="M431.42,221.34c11.28-21.05-80.88-41.12-111.44-66.5c-9.84,3.68-13.67,8.51-6.61,14.82
				c29.02,25.96,124.3,46.33,112.85,67.72c-8.77,16.36,52.87,13.87,69.35-20.43c-1.04-1.46-2.1-2.9-3.17-4.34
				C469.57,235.54,423.78,235.59,431.42,221.34z"/>
			<g>
				<g>
					<path class="st2" d="M331.7,424.81c47.34,20.62,154.99,45.28,153.46,15.5c-1.53-29.78-4.56-72.77,20.64-86.52
						c7.05-3.84,15.89-9.48,24.96-15.61c0.16-3.18,0.24-6.38,0.24-9.59c0-20.98-3.34-41.19-9.54-60.11
						c-44.05,1.75-122.9,1.63-142.42-20.07c-27.49-30.54-190.32,40.29-126.18,60.14s238.29,0.99,202.4,14.74
						c-35.89,13.74-61.71,33.56-22.76,45.77c38.94,12.22-13.74,36.65-43.53,36.65C359.19,405.72,284.35,404.19,331.7,424.81z"/>
				</g>
			</g>
			<g>
				<path class="st3" d="M454.82,323.73c-35.89,13.74-61.71,33.56-22.76,45.77c22.46,7.05,14.44,18.16-2.09,26.3
					c27.61-6.58,55.48-24.28,24.19-34.1c-38.94-12.22-13.13-32.03,22.76-45.77c35.89-13.74-138.25,5.12-202.4-14.74
					c-34.47-10.67-3.38-36.07,37.02-52.53c-49.39,14.78-99.72,47.77-59.12,60.33C316.57,328.85,490.71,309.98,454.82,323.73z"/>
				<path class="st3" d="M353.8,417.44c-9.89-4.3-14.44-7.64-15.2-10.23c-21.28,1.76-33.79,6.33-6.91,18.03
					c43.74,19.05,138.94,41.55,151.98,21.38C449.56,448.27,386.92,431.87,353.8,417.44z"/>
			</g>
			<g>
				<g>
					<path class="st2" d="M232.89,490.84c30.21,19.58,66.24,30.95,104.92,30.95c44.37,0,85.24-14.96,117.85-40.1
						c-20.71,3.7-46.17,3.87-68.21-8.77c-46.58-26.73-80.86-36.53-77.81-1.4C312.18,500.75,267.94,480.04,232.89,490.84z"/>
				</g>
			</g>
			<path class="st3" d="M321.77,482.78c-3.05-35.13,31.23-25.32,77.81,1.4c11.67,6.69,24.29,9.79,36.66,10.68
				c6.75-4,13.24-8.41,19.42-13.18c-20.71,3.7-46.17,3.87-68.21-8.77c-46.58-26.73-80.86-36.53-77.81-1.4
				c2.54,29.23-41.69,8.52-76.75,19.32c5.55,3.59,11.29,6.91,17.21,9.93C284.19,493.17,324.19,510.62,321.77,482.78z"/>
		</g>
		<g>
			<path class="st2" d="M256.42,757.02l-17.37,90.74h-13.49l-17.31-90.74h13.61l10.13,62.14c0.08,1.78,0.19,4.36,0.35,7.76
				c-0.04-1.78,0.08-4.36,0.35-7.76l10.19-62.14H256.42z"/>
			<path class="st2" d="M301.64,847.65h-37.58v-90.63h37.24v11.99h-23.68v26.46h20.38v11.76h-20.38v28.43h24.03V847.65z"/>
			<path class="st2" d="M356.83,847.65h-11.87l-21.72-57.04c0.58,2.78,0.87,4.96,0.87,6.54v50.5h-13.2v-90.63h11.87l21.72,55.88
				c-0.58-2.78-0.87-4.96-0.87-6.54v-49.34h13.2V847.65z"/>
			<path class="st2" d="M413.06,839.37c0,5.52-2.78,8.28-8.34,8.28h-28.78c-5.48,0-8.22-2.76-8.22-8.28v-82.35h13.55v78.99h18.24
				v-78.99h13.55V839.37z"/>
			<path class="st2" d="M467.38,839.37c0,5.52-2.74,8.28-8.22,8.28h-27.27c-5.44,0-8.17-2.76-8.17-8.28v-21.6h13.55v18.47h16.56
				v-17.78l-27.16-25.71c-1.97-1.89-2.95-4.3-2.95-7.24v-20.15c0-5.56,2.72-8.34,8.17-8.34h27.27c5.48,0,8.22,2.74,8.22,8.22v20.27
				h-13.55v-17.08h-16.56v16.39l27.16,25.6c1.97,1.85,2.95,4.31,2.95,7.35V839.37z"/>
		</g>
	</g>
</g>
</svg>
